<?xml version="1.0" encoding="UTF-8"?>
<svg version="1.1" xmlns="http://www.w3.org/2000/svg" width="512" height="512">
<path d="M0 0 C4.33917334 1.98907892 8.46278756 4.35129808 12.6015625 6.72265625 C14.02227051 7.52727295 14.02227051 7.52727295 15.47167969 8.34814453 C23.21876835 12.74305691 30.91475369 17.22336529 38.6015625 21.72265625 C41.58635509 23.46703408 44.57144343 25.21090454 47.55664062 26.95458984 C49.51134865 28.09636161 51.46577354 29.23861824 53.41992188 30.38134766 C61.11962093 34.87703525 68.85522807 39.30807572 76.6015625 43.72265625 C86.32271867 49.26267355 96.01050908 54.85640434 105.66845703 60.50610352 C116.19240875 66.66032367 126.75536387 72.74635621 137.31933594 78.83154297 C142.74816192 81.95945773 148.17475531 85.09124073 153.6015625 88.22265625 C155.76821833 89.47267504 157.934885 90.72267503 160.1015625 91.97265625 C164.43489583 94.47265625 168.76822917 96.97265625 173.1015625 99.47265625 C174.17438477 100.09156738 175.24720703 100.71047852 176.35253906 101.34814453 C178.51603726 102.59636659 180.67944893 103.84473864 182.84277344 105.09326172 C188.30721267 108.24670881 193.77319895 111.39741721 199.2421875 114.54296875 C203.59411673 117.04607265 207.94137372 119.55700656 212.28515625 122.07421875 C216.49219015 124.51181795 220.71456199 126.91934202 224.94921875 129.30859375 C226.937733 130.4462074 228.92602474 131.58421012 230.9140625 132.72265625 C231.82124023 133.22619629 232.72841797 133.72973633 233.66308594 134.24853516 C240.01536868 137.91817572 244.20640814 141.53719316 246.6015625 148.72265625 C247.28484447 155.85807222 247.57569202 162.14218533 243.1640625 168.0703125 C238.28027592 173.23491681 233.5476271 175.78827514 226.4140625 176.03515625 C221.6015625 175.72265625 221.6015625 175.72265625 212.6015625 171.72265625 C212.6015625 205.71265625 212.6015625 239.70265625 212.6015625 274.72265625 C223.4915625 274.72265625 234.3815625 274.72265625 245.6015625 274.72265625 C247.59541029 276.71650404 246.76550204 280.67570637 246.76953125 283.40625 C246.77285965 284.17695328 246.77618805 284.94765656 246.77961731 285.74171448 C246.7846896 287.37508546 246.78702554 289.00846685 246.78686523 290.6418457 C246.7890503 293.14616924 246.80719845 295.65005146 246.82617188 298.15429688 C246.82910597 299.73827974 246.83109066 301.3222647 246.83203125 302.90625 C246.83921677 303.65837265 246.84640228 304.4104953 246.85380554 305.18540955 C246.83038529 310.49383346 246.83038529 310.49383346 244.6015625 312.72265625 C241.98779297 312.94970703 241.98779297 312.94970703 238.71875 312.91796875 C237.55214844 312.91152344 236.38554687 312.90507812 235.18359375 312.8984375 C233.96027344 312.88167969 232.73695313 312.86492187 231.4765625 312.84765625 C230.24550781 312.83863281 229.01445312 312.82960938 227.74609375 312.8203125 C224.69772435 312.79668173 221.64973868 312.76373679 218.6015625 312.72265625 C218.61727295 313.64602783 218.6329834 314.56939941 218.64916992 315.52075195 C218.70031082 318.94805514 218.73791785 322.37495267 218.76635742 325.80249023 C218.78144018 327.28562824 218.80190939 328.76872169 218.82788086 330.25170898 C218.86428866 332.3840637 218.88129323 334.5158286 218.89453125 336.6484375 C218.9102417 337.93145752 218.92595215 339.21447754 218.94213867 340.53637695 C218.6015625 343.72265625 218.6015625 343.72265625 215.6015625 346.72265625 C209.3315625 346.72265625 203.0615625 346.72265625 196.6015625 346.72265625 C196.6015625 376.42265625 196.6015625 406.12265625 196.6015625 436.72265625 C203.2015625 436.72265625 209.8015625 436.72265625 216.6015625 436.72265625 C219.05442546 440.4019507 218.83385128 442.19643532 218.796875 446.578125 C218.79263016 447.57057976 218.79263016 447.57057976 218.78829956 448.58308411 C218.77712168 450.69229362 218.75202231 452.8010755 218.7265625 454.91015625 C218.71652957 456.34179073 218.70740426 457.77343189 218.69921875 459.20507812 C218.67719045 462.71107602 218.64267735 466.21682438 218.6015625 469.72265625 C219.30764648 469.71218262 220.01373047 469.70170898 220.74121094 469.69091797 C223.94462516 469.64930835 227.14798246 469.62331421 230.3515625 469.59765625 C231.46273438 469.58089844 232.57390625 469.56414062 233.71875 469.546875 C234.78867187 469.54042969 235.85859375 469.53398437 236.9609375 469.52734375 C237.94545898 469.51687012 238.92998047 469.50639648 239.94433594 469.49560547 C242.66129361 469.72776007 244.28268763 470.33229352 246.6015625 471.72265625 C246.6509276 476.67055802 246.68726519 481.61831708 246.71142578 486.56640625 C246.72149567 488.25035091 246.73515238 489.93427804 246.75244141 491.61816406 C246.77664676 494.03585126 246.78803546 496.45330768 246.796875 498.87109375 C246.80719757 499.62635345 246.81752014 500.38161316 246.82815552 501.15975952 C246.82855568 503.01559605 246.72378966 504.87084905 246.6015625 506.72265625 C244.04115934 509.28305941 242.37013016 508.96465588 238.87949514 508.98852742 C238.07031338 508.98384508 237.26113162 508.97916275 236.4274292 508.97433853 C235.56802687 508.97724541 234.70862454 508.98015229 233.82317972 508.98314726 C230.91167295 508.99051002 228.00037281 508.9834749 225.08886719 508.97662354 C222.99316677 508.97892549 220.89746716 508.98210022 218.80176926 508.98607802 C213.01812796 508.99447112 207.23455218 508.99028039 201.45091057 508.98410559 C195.22316913 508.97960045 188.99543935 508.98655517 182.7677002 508.99206543 C171.26439155 509.00046587 159.76111231 508.99970815 148.2578038 508.99424249 C137.63227547 508.98921847 127.00675486 508.98789466 116.38122559 508.99028778 C115.67738915 508.99044055 114.97355272 508.99059332 114.2483879 508.99075072 C111.39154378 508.99137336 108.53469965 508.99201016 105.67785554 508.99267025 C78.85886067 508.99879318 52.03987921 508.99323352 25.22088641 508.98247645 C1.37511501 508.9729847 -22.47063504 508.97383393 -46.31640625 508.98339844 C-73.08522749 508.99409939 -99.85403688 508.99835901 -126.62285995 508.99217391 C-129.47460683 508.99153244 -132.32635371 508.99090676 -135.17810059 508.99028778 C-135.88031318 508.99012963 -136.58252578 508.98997147 -137.30601755 508.98980852 C-147.92687464 508.98753014 -158.54772319 508.99020052 -169.1685791 508.99524689 C-181.240635 509.00095405 -193.31266015 508.99936666 -205.38471508 508.9886854 C-211.54990256 508.98341118 -217.71504656 508.98140155 -223.88023376 508.9879837 C-229.51544372 508.99390926 -235.1505696 508.99072467 -240.78577185 508.9800286 C-242.83283959 508.97778006 -244.87991432 508.97896302 -246.92697763 508.98378018 C-249.69285657 508.98979347 -252.45844109 508.98369391 -255.2243042 508.97433853 C-256.03348596 508.97902086 -256.84266772 508.9837032 -257.67637014 508.98852742 C-263.17013676 508.95095699 -263.17013676 508.95095699 -265.3984375 506.72265625 C-265.57354136 504.06973868 -265.62999233 501.52279451 -265.59375 498.87109375 C-265.5909201 498.09706207 -265.58809021 497.3230304 -265.58517456 496.52554321 C-265.57396504 494.04942468 -265.54885953 491.57366575 -265.5234375 489.09765625 C-265.51340868 487.42057813 -265.50428266 485.74349436 -265.49609375 484.06640625 C-265.47402324 479.95168402 -265.43948852 475.83723114 -265.3984375 471.72265625 C-262.0801298 469.73304852 -259.59884051 469.48648175 -255.7578125 469.52734375 C-254.68789062 469.53378906 -253.61796875 469.54023438 -252.515625 469.546875 C-251.40445313 469.56363281 -250.29328125 469.58039063 -249.1484375 469.59765625 C-248.02179688 469.60667969 -246.89515625 469.61570312 -245.734375 469.625 C-242.95551385 469.64854967 -240.1770836 469.68143945 -237.3984375 469.72265625 C-237.40891113 468.82957764 -237.41938477 467.93649902 -237.43017578 467.01635742 C-237.46427342 463.70090148 -237.48934387 460.38563204 -237.50830078 457.07006836 C-237.5183545 455.63546813 -237.53199944 454.20088836 -237.54931641 452.76635742 C-237.57359299 450.70356187 -237.58492669 448.6410374 -237.59375 446.578125 C-237.60422363 445.33699951 -237.61469727 444.09587402 -237.62548828 442.81713867 C-237.3984375 439.72265625 -237.3984375 439.72265625 -235.3984375 436.72265625 C-228.7984375 436.72265625 -222.1984375 436.72265625 -215.3984375 436.72265625 C-215.3984375 407.02265625 -215.3984375 377.32265625 -215.3984375 346.72265625 C-221.6684375 346.72265625 -227.9384375 346.72265625 -234.3984375 346.72265625 C-237.3984375 343.72265625 -237.3984375 343.72265625 -237.73901367 340.53637695 C-237.72330322 339.25335693 -237.70759277 337.97033691 -237.69140625 336.6484375 C-237.68503899 335.62268867 -237.68503899 335.62268867 -237.67854309 334.57621765 C-237.66177103 332.39546064 -237.62412407 330.21563316 -237.5859375 328.03515625 C-237.57088864 326.5553519 -237.55720058 325.07553305 -237.54492188 323.59570312 C-237.51187319 319.97105289 -237.46010196 316.34694531 -237.3984375 312.72265625 C-238.17558105 312.73312988 -238.95272461 312.74360352 -239.75341797 312.75439453 C-243.2600585 312.79585907 -246.76664756 312.82195203 -250.2734375 312.84765625 C-251.49675781 312.86441406 -252.72007812 312.88117188 -253.98046875 312.8984375 C-255.14707031 312.90488281 -256.31367188 312.91132813 -257.515625 312.91796875 C-258.59440918 312.92844238 -259.67319336 312.93891602 -260.78466797 312.94970703 C-263.3984375 312.72265625 -263.3984375 312.72265625 -265.3984375 310.72265625 C-265.58581399 308.08149512 -265.65413616 305.54711645 -265.62890625 302.90625 C-265.62844803 302.13459 -265.62798981 301.36292999 -265.6275177 300.56788635 C-265.62449537 298.93627383 -265.61660963 297.3046642 -265.60424805 295.6730957 C-265.58598537 293.16672625 -265.58373838 290.66072592 -265.58398438 288.15429688 C-265.57906948 286.57161137 -265.57324129 284.98892838 -265.56640625 283.40625 C-265.56529343 282.65210312 -265.5641806 281.89795624 -265.56303406 281.12095642 C-265.51448869 275.83870744 -265.51448869 275.83870744 -264.3984375 274.72265625 C-253.5084375 274.72265625 -242.6184375 274.72265625 -231.3984375 274.72265625 C-231.3984375 240.73265625 -231.3984375 206.74265625 -231.3984375 171.72265625 C-235.8534375 173.70265625 -235.8534375 173.70265625 -240.3984375 175.72265625 C-248.2219903 176.46272206 -253.15232164 175.03239253 -259.6484375 170.41015625 C-264.49957491 165.66927197 -265.59642519 162.03854853 -265.8359375 155.34765625 C-265.65721302 149.52256225 -265.10767011 145.29407624 -261.3984375 140.72265625 C-254.64611384 135.22073267 -246.94989069 131.07503864 -239.3359375 126.91015625 C-237.10339903 125.67456308 -234.87162864 124.43758108 -232.640625 123.19921875 C-231.56522461 122.60270508 -230.48982422 122.00619141 -229.38183594 121.39160156 C-225.5419373 119.24352079 -221.74350926 117.03227562 -217.9609375 114.78515625 C-210.99089432 110.64921896 -203.98342332 106.58144324 -196.9609375 102.53515625 C-195.85371338 101.89715088 -194.74648926 101.25914551 -193.60571289 100.60180664 C-191.33506682 99.29376148 -189.06431392 97.98590177 -186.79345703 96.67822266 C-181.3267377 93.52933571 -175.86268863 90.37582361 -170.3984375 87.22265625 C-168.23178439 85.97263275 -166.06511771 84.72263278 -163.8984375 83.47265625 C-162.8259375 82.85390625 -161.7534375 82.23515625 -160.6484375 81.59765625 C-124.8984375 60.97265625 -124.8984375 60.97265625 -121.64794922 59.09741211 C-119.48286679 57.84830107 -117.31782768 56.59911496 -115.15283203 55.34985352 C-109.71228044 52.21063316 -104.27096534 49.07275062 -98.828125 45.9375 C-88.37637091 39.91518031 -77.93581347 33.87533229 -67.5234375 27.78515625 C-59.19105891 22.91798244 -50.84501675 18.07500596 -42.4755249 13.27194214 C-40.71178299 12.25903521 -38.94985086 11.24297897 -37.18798828 10.22680664 C-11.6681022 -4.38559703 -11.6681022 -4.38559703 0 0 Z " fill="#B6B0B5" transform="translate(265.3984375,2.27734375)"/>
<path d="M0 0 C4.33917334 1.98907892 8.46278756 4.35129808 12.6015625 6.72265625 C14.02227051 7.52727295 14.02227051 7.52727295 15.47167969 8.34814453 C23.21876835 12.74305691 30.91475369 17.22336529 38.6015625 21.72265625 C41.58635509 23.46703408 44.57144343 25.21090454 47.55664062 26.95458984 C49.51134865 28.09636161 51.46577354 29.23861824 53.41992188 30.38134766 C61.11962093 34.87703525 68.85522807 39.30807572 76.6015625 43.72265625 C86.32271867 49.26267355 96.01050908 54.85640434 105.66845703 60.50610352 C116.19240875 66.66032367 126.75536387 72.74635621 137.31933594 78.83154297 C142.74816192 81.95945773 148.17475531 85.09124073 153.6015625 88.22265625 C155.76821833 89.47267504 157.934885 90.72267503 160.1015625 91.97265625 C164.43489583 94.47265625 168.76822917 96.97265625 173.1015625 99.47265625 C174.17438477 100.09156738 175.24720703 100.71047852 176.35253906 101.34814453 C178.51603726 102.59636659 180.67944893 103.84473864 182.84277344 105.09326172 C188.30721267 108.24670881 193.77319895 111.39741721 199.2421875 114.54296875 C203.59411673 117.04607265 207.94137372 119.55700656 212.28515625 122.07421875 C216.49219015 124.51181795 220.71456199 126.91934202 224.94921875 129.30859375 C226.937733 130.4462074 228.92602474 131.58421012 230.9140625 132.72265625 C231.82124023 133.22619629 232.72841797 133.72973633 233.66308594 134.24853516 C240.01536868 137.91817572 244.20640814 141.53719316 246.6015625 148.72265625 C247.28484447 155.85807222 247.57569202 162.14218533 243.1640625 168.0703125 C238.28027592 173.23491681 233.5476271 175.78827514 226.4140625 176.03515625 C221.6015625 175.72265625 221.6015625 175.72265625 212.6015625 171.72265625 C212.6015625 205.38265625 212.6015625 239.04265625 212.6015625 273.72265625 C66.0815625 273.72265625 -80.4384375 273.72265625 -231.3984375 273.72265625 C-231.3984375 240.06265625 -231.3984375 206.40265625 -231.3984375 171.72265625 C-235.8534375 173.70265625 -235.8534375 173.70265625 -240.3984375 175.72265625 C-248.2219903 176.46272206 -253.15232164 175.03239253 -259.6484375 170.41015625 C-264.49957491 165.66927197 -265.59642519 162.03854853 -265.8359375 155.34765625 C-265.65721302 149.52256225 -265.10767011 145.29407624 -261.3984375 140.72265625 C-254.64611384 135.22073267 -246.94989069 131.07503864 -239.3359375 126.91015625 C-237.10339903 125.67456308 -234.87162864 124.43758108 -232.640625 123.19921875 C-231.56522461 122.60270508 -230.48982422 122.00619141 -229.38183594 121.39160156 C-225.5419373 119.24352079 -221.74350926 117.03227562 -217.9609375 114.78515625 C-210.99089432 110.64921896 -203.98342332 106.58144324 -196.9609375 102.53515625 C-195.85371338 101.89715088 -194.74648926 101.25914551 -193.60571289 100.60180664 C-191.33506682 99.29376148 -189.06431392 97.98590177 -186.79345703 96.67822266 C-181.3267377 93.52933571 -175.86268863 90.37582361 -170.3984375 87.22265625 C-168.23178439 85.97263275 -166.06511771 84.72263278 -163.8984375 83.47265625 C-162.8259375 82.85390625 -161.7534375 82.23515625 -160.6484375 81.59765625 C-124.8984375 60.97265625 -124.8984375 60.97265625 -121.64794922 59.09741211 C-119.48286679 57.84830107 -117.31782768 56.59911496 -115.15283203 55.34985352 C-109.71228044 52.21063316 -104.27096534 49.07275062 -98.828125 45.9375 C-88.37637091 39.91518031 -77.93581347 33.87533229 -67.5234375 27.78515625 C-59.19105891 22.91798244 -50.84501675 18.07500596 -42.4755249 13.27194214 C-40.71178299 12.25903521 -38.94985086 11.24297897 -37.18798828 10.22680664 C-11.6681022 -4.38559703 -11.6681022 -4.38559703 0 0 Z " fill="#EAE8EA" transform="translate(265.3984375,2.27734375)"/>
<path d="M0 0 C93.72 0 187.44 0 284 0 C284 9.9 284 19.8 284 30 C283.01 30.99 282.02 31.98 281 33 C274.73 33 268.46 33 262 33 C262 62.7 262 92.4 262 123 C268.6 123 275.2 123 282 123 C284.41212469 126.61818703 284.24528253 128.30091911 284.23046875 132.6015625 C284.22853516 133.89578125 284.22660156 135.19 284.22460938 136.5234375 C284.21840576 137.19600586 284.21220215 137.86857422 284.20581055 138.56152344 C284.18750467 140.62447391 284.18530128 142.68697663 284.18554688 144.75 C284.14014333 154.85985667 284.14014333 154.85985667 283 156 C281.4882886 156.09683929 279.9720461 156.12371721 278.45723629 156.12304783 C277.46944429 156.12503888 276.4816523 156.12702993 275.46392721 156.12908131 C274.36570168 156.12616847 273.26747616 156.12325563 272.13597107 156.12025452 C270.40122146 156.12153615 270.40122146 156.12153615 268.63142639 156.12284368 C265.40702557 156.12421183 262.18266441 156.12106449 258.95826828 156.11606562 C255.48654244 156.11176433 252.01481858 156.11320732 248.54309082 156.1139679 C242.52333063 156.11449334 236.50358125 156.11134445 230.48382378 156.10573006 C221.78016672 156.09761776 213.07651491 156.09500011 204.37285448 156.09374207 C190.25320536 156.09155112 176.133562 156.08488988 162.01391602 156.07543945 C148.29451527 156.06626643 134.57511608 156.05918506 120.85571289 156.05493164 C120.01065587 156.05466892 119.16559884 156.05440619 118.29493403 156.05413551 C114.05571251 156.05283051 109.81649097 156.05156679 105.57726943 156.05032361 C70.38484218 156.03994967 35.19242162 156.0223302 0 156 C-0.07419134 151.78250781 -0.1286204 147.56536189 -0.16479492 143.34741211 C-0.17987589 141.91277448 -0.2003438 140.47818292 -0.22631836 139.04370117 C-0.26273437 136.98084141 -0.27973243 134.91859142 -0.29296875 132.85546875 C-0.3086792 131.61434326 -0.32438965 130.37321777 -0.34057617 129.09448242 C0 126 0 126 1.28696156 124.09170818 C4.34297147 122.14413308 7.91394397 122.66436789 11.41870117 122.7512207 C12.72765209 122.76554657 12.72765209 122.76554657 14.06304646 122.78016186 C16.89008598 122.81455348 19.71628322 122.86978161 22.54296875 122.92578125 C24.28729424 122.95006362 26.03163929 122.97298133 27.77600098 122.99450684 C34.24675064 123.08395114 40.71711294 123.19983753 47.1875 123.3125 C68.8746875 123.6528125 68.8746875 123.6528125 91 124 C91 93.64 91 63.28 91 32 C61.79996624 32.11882079 61.79996624 32.11882079 32.60009766 32.27026367 C26.9597168 32.28381348 26.9597168 32.28381348 24.32138062 32.28633118 C22.47394649 32.29094578 20.62652154 32.30151313 18.77914429 32.31672668 C15.98492675 32.33859248 13.19126255 32.34172123 10.39697266 32.34057617 C9.1570906 32.35676766 9.1570906 32.35676766 7.89216042 32.37328625 C5.61929321 32.36076355 5.61929321 32.36076355 2 32 C-3.92834708 23.10747937 0 10.68747969 0 0 Z " fill="#B6B1B7" transform="translate(200,316)"/>
<path d="M0 0 C4.33917334 1.98907892 8.46278756 4.35129808 12.6015625 6.72265625 C14.02227051 7.52727295 14.02227051 7.52727295 15.47167969 8.34814453 C23.21876835 12.74305691 30.91475369 17.22336529 38.6015625 21.72265625 C41.58635509 23.46703408 44.57144343 25.21090454 47.55664062 26.95458984 C49.51134865 28.09636161 51.46577354 29.23861824 53.41992188 30.38134766 C61.11962093 34.87703525 68.85522807 39.30807572 76.6015625 43.72265625 C86.32271867 49.26267355 96.01050908 54.85640434 105.66845703 60.50610352 C116.19240875 66.66032367 126.75536387 72.74635621 137.31933594 78.83154297 C142.74816192 81.95945773 148.17475531 85.09124073 153.6015625 88.22265625 C155.76821833 89.47267504 157.934885 90.72267503 160.1015625 91.97265625 C164.43489583 94.47265625 168.76822917 96.97265625 173.1015625 99.47265625 C174.17438477 100.09156738 175.24720703 100.71047852 176.35253906 101.34814453 C178.51603726 102.59636659 180.67944893 103.84473864 182.84277344 105.09326172 C188.30721267 108.24670881 193.77319895 111.39741721 199.2421875 114.54296875 C203.59411673 117.04607265 207.94137372 119.55700656 212.28515625 122.07421875 C216.49219015 124.51181795 220.71456199 126.91934202 224.94921875 129.30859375 C226.937733 130.4462074 228.92602474 131.58421012 230.9140625 132.72265625 C231.82124023 133.22619629 232.72841797 133.72973633 233.66308594 134.24853516 C240.01536868 137.91817572 244.20640814 141.53719316 246.6015625 148.72265625 C247.28484447 155.85807222 247.57569202 162.14218533 243.1640625 168.0703125 C238.92253444 172.55572842 234.76099788 175.30909862 228.55859375 175.92578125 C220.92113475 176.09272024 214.82087505 174.41854817 208.54296875 170.01171875 C203.22602726 166.40056116 197.66705233 163.31842695 192.0390625 160.22265625 C183.52720332 155.49859641 175.06280138 150.70763986 166.6640625 145.78515625 C158.36768954 140.92340949 150.05813113 136.08638863 141.7265625 131.28515625 C140.10633179 130.35135132 140.10633179 130.35135132 138.45336914 129.39868164 C136.26359916 128.13688799 134.07373895 126.87525091 131.88378906 125.61376953 C126.45496308 122.48585477 121.02836969 119.35407177 115.6015625 116.22265625 C113.43490667 114.97263746 111.26824 113.72263747 109.1015625 112.47265625 C104.76822917 109.97265625 100.43489583 107.47265625 96.1015625 104.97265625 C95.02890137 104.35382568 93.95624023 103.73499512 92.85107422 103.09741211 C90.68599179 101.84830107 88.52095268 100.59911496 86.35595703 99.34985352 C80.91540544 96.21063316 75.47409034 93.07275062 70.03125 89.9375 C59.57950021 83.91518279 49.13858806 77.87592729 38.7265625 71.78515625 C26.33805381 64.54006769 13.89980997 57.37607155 1.39404297 50.33496094 C-0.27887376 49.36906287 -1.93391472 48.3694044 -3.54638672 47.30566406 C-5.47988553 45.97742857 -5.47988553 45.97742857 -8.3984375 44.72265625 C-12.56484224 45.78339633 -16.06263404 47.50834734 -19.7578125 49.671875 C-21.28752686 50.56144897 -21.28752686 50.56144897 -22.84814453 51.46899414 C-23.93724121 52.10957764 -25.02633789 52.75016113 -26.1484375 53.41015625 C-27.3041863 54.0844834 -28.46028016 54.75821943 -29.61669922 55.43139648 C-32.01824298 56.82995421 -34.41828554 58.23103919 -36.81738281 59.63378906 C-42.37075584 62.87741516 -47.94903061 66.07787089 -53.5234375 69.28515625 C-61.78966798 74.04933335 -70.03816507 78.84269274 -78.2734375 83.66015625 C-87.54343527 89.08186803 -96.85675502 94.4247054 -106.18688965 99.74188232 C-115.3112659 104.94310754 -124.39976524 110.20293503 -133.46533203 115.50610352 C-143.98928375 121.66032367 -154.55223887 127.74635621 -165.11621094 133.83154297 C-169.46415699 136.33668951 -173.81063656 138.84437339 -178.15698242 141.35229492 C-180.30808968 142.59351151 -182.45929323 143.83456125 -184.6105957 145.07543945 C-189.6443011 147.97892803 -194.6774607 150.88335035 -199.70864868 153.79119873 C-201.48206358 154.81611028 -203.25565396 155.84071748 -205.02929688 156.86523438 C-207.24839523 158.14718363 -209.46716766 159.42969732 -211.68554688 160.71289062 C-216.97421174 163.76728865 -222.2749986 166.78242867 -227.65405273 169.67529297 C-229.56280148 170.72552946 -229.56280148 170.72552946 -231.3984375 172.72265625 C-238.61039877 176.04656229 -245.50161049 176.97756664 -253.0859375 174.53515625 C-258.88042353 171.36458842 -263.33125775 168.15388214 -265.3984375 161.72265625 C-266.0836424 155.24281734 -266.52420944 148.32544311 -262.93505859 142.61645508 C-257.16090624 135.50013798 -247.23210431 131.22941134 -239.3359375 126.91015625 C-237.10339903 125.67456308 -234.87162864 124.43758108 -232.640625 123.19921875 C-231.56522461 122.60270508 -230.48982422 122.00619141 -229.38183594 121.39160156 C-225.5419373 119.24352079 -221.74350926 117.03227562 -217.9609375 114.78515625 C-210.99089432 110.64921896 -203.98342332 106.58144324 -196.9609375 102.53515625 C-195.85371338 101.89715088 -194.74648926 101.25914551 -193.60571289 100.60180664 C-191.33506682 99.29376148 -189.06431392 97.98590177 -186.79345703 96.67822266 C-181.3267377 93.52933571 -175.86268863 90.37582361 -170.3984375 87.22265625 C-168.23178439 85.97263275 -166.06511771 84.72263278 -163.8984375 83.47265625 C-162.8259375 82.85390625 -161.7534375 82.23515625 -160.6484375 81.59765625 C-124.8984375 60.97265625 -124.8984375 60.97265625 -121.64794922 59.09741211 C-119.48286679 57.84830107 -117.31782768 56.59911496 -115.15283203 55.34985352 C-109.71228044 52.21063316 -104.27096534 49.07275062 -98.828125 45.9375 C-88.37637091 39.91518031 -77.93581347 33.87533229 -67.5234375 27.78515625 C-59.19105891 22.91798244 -50.84501675 18.07500596 -42.4755249 13.27194214 C-40.71178299 12.25903521 -38.94985086 11.24297897 -37.18798828 10.22680664 C-11.6681022 -4.38559703 -11.6681022 -4.38559703 0 0 Z " fill="#05549B" transform="translate(265.3984375,2.27734375)"/>
<path d="M0 0 C5.35797574 0.00230124 10.71594848 -0.00124855 16.07392359 -0.00397992 C26.52201623 -0.00838695 36.97010162 -0.00748395 47.41819453 -0.00456728 C55.92255843 -0.00229312 64.42692031 -0.00200937 72.93128443 -0.0030911 C74.1495458 -0.00324433 75.36780716 -0.00339756 76.62298554 -0.00355544 C79.09917378 -0.00387522 81.57536203 -0.00419943 84.05155027 -0.00452803 C107.17819309 -0.00736798 130.30483192 -0.00411921 153.43147409 0.00127234 C173.20180878 0.00573902 192.97213759 0.00496266 212.74247217 0.00035357 C235.79600385 -0.00501855 258.84953204 -0.00709343 281.90306425 -0.00403416 C284.36927843 -0.00371567 286.83549261 -0.0034013 289.30170679 -0.0030911 C290.51459366 -0.00293682 291.72748052 -0.00278255 292.97712153 -0.0026236 C301.45443776 -0.00176633 309.93175175 -0.00320414 318.40906763 -0.00557065 C328.76413888 -0.00839829 339.11920257 -0.00756868 349.47427297 -0.00228991 C354.74023764 0.00030759 360.00618979 0.00142075 365.27215433 -0.00193906 C384.28792108 -0.0130117 403.29367082 0.0274382 422.30277491 0.57631183 C423.01485405 0.59573092 423.72693319 0.61515002 424.46059048 0.63515757 C426.42266215 0.69047112 428.38448538 0.75440303 430.34627771 0.81886744 C431.44363591 0.8547016 432.54099411 0.89053575 433.67160559 0.92745578 C436.11649561 1.13072467 436.11649561 1.13072467 437.11649561 2.13072467 C437.22981654 4.70091952 437.28067046 7.24323944 437.28446436 9.81431842 C437.28779276 10.5850217 437.29112116 11.35572497 437.29455042 12.1497829 C437.29962271 13.78315388 437.30195865 15.41653527 437.30179834 17.04991412 C437.30398341 19.55423766 437.32213156 22.05811987 437.34110498 24.56236529 C437.34403908 26.14634816 437.34602377 27.73033312 437.34696436 29.31431842 C437.35414988 30.06644107 437.36133539 30.81856372 437.36873865 31.59347796 C437.3453184 36.90190188 437.3453184 36.90190188 435.11649561 39.13072467 C433.20729113 39.44751894 433.20729113 39.44751894 430.79456568 39.54023814 C429.85938923 39.57832312 428.92421278 39.61640809 427.96069765 39.65564716 C426.3795193 39.70118238 426.3795193 39.70118238 424.76639795 39.74763751 C423.62734695 39.78525317 422.48829596 39.82286883 421.31472826 39.86162436 C403.52557403 40.37428541 385.7229795 40.27238397 367.92832136 40.26144934 C362.40402912 40.25916041 356.87973987 40.26269201 351.35544825 40.26542926 C340.56851448 40.26984897 329.78158773 40.2689275 318.9946537 40.26601662 C310.21879981 40.26374756 301.44294786 40.26345654 292.66709375 40.26454043 C291.41255856 40.26469367 290.15802337 40.2648469 288.86547196 40.26500478 C286.31598886 40.26532454 283.76650576 40.26564875 281.21702266 40.26597737 C258.053368 40.26874015 234.88971698 40.2658872 211.72606316 40.26063477 C190.64201257 40.25589021 169.55796802 40.25631489 148.47391748 40.26109576 C124.71074271 40.26646631 100.94757086 40.26854644 77.18439531 40.2654835 C74.64489603 40.26516499 72.10539675 40.26485062 69.56589746 40.26454043 C68.31679138 40.26438616 67.06768529 40.26423188 65.78072751 40.26407293 C57.0271912 40.26321369 48.27365706 40.26465782 39.5201211 40.26701999 C28.83566584 40.26984016 18.15121792 40.26903331 7.4667635 40.26373924 C2.02754199 40.26113195 -3.41166734 40.26004605 -8.85088873 40.2633884 C-46.28543632 40.28420535 -46.28543632 40.28420535 -62.53340673 39.74763751 C-63.58752563 39.71728069 -64.64164454 39.68692388 -65.72770643 39.65564716 C-66.66288288 39.61756218 -67.59805933 39.57947721 -68.56157446 39.54023814 C-69.75587356 39.49434214 -69.75587356 39.49434214 -70.97429991 39.44751894 C-72.88350439 39.13072467 -72.88350439 39.13072467 -74.88350439 37.13072467 C-75.07088088 34.48956354 -75.13920305 31.95518487 -75.11397314 29.31431842 C-75.11351492 28.54265841 -75.1130567 27.77099841 -75.11258459 26.97595477 C-75.10956226 25.34434225 -75.10167652 23.71273261 -75.08931494 22.08116412 C-75.07105226 19.57479467 -75.06880527 17.06879434 -75.06905127 14.56236529 C-75.06413637 12.97967979 -75.05830818 11.3969968 -75.05147314 9.81431842 C-75.05036032 9.06017154 -75.04924749 8.30602466 -75.04810095 7.52902484 C-74.99955558 2.24677586 -74.99955558 2.24677586 -73.88350439 1.13072467 C-71.96391434 0.97112938 -70.03847334 0.88173428 -68.1132865 0.81886744 C-66.8562054 0.77755981 -65.5991243 0.73625218 -64.30394983 0.6936928 C-62.89257961 0.6539043 -61.48118991 0.61480226 -60.06978369 0.57631183 C-58.98032511 0.54485453 -58.98032511 0.54485453 -57.86885726 0.51276173 C-38.58196341 -0.03431127 -19.29302924 -0.01230941 0 0 Z " fill="#07569C" transform="translate(74.88350439071655,275.8692753314972)"/>
<path d="M0 0 C5.5297425 0.00228585 11.05948198 -0.00124119 16.58922386 -0.00397992 C27.39046607 -0.00840284 38.19170129 -0.00747671 48.99294376 -0.00456728 C57.77935086 -0.00229951 66.56575601 -0.00200666 75.35216331 -0.0030911 C77.23523874 -0.00332095 77.23523874 -0.00332095 79.1563561 -0.00355544 C81.70745373 -0.0038752 84.25855136 -0.00419941 86.80964899 -0.00452803 C109.99528837 -0.00729171 133.18092412 -0.00443638 156.36656266 0.00081457 C177.47712136 0.00555923 198.58767401 0.00513457 219.69823265 0.00035357 C243.48334765 -0.00501529 267.26845974 -0.00709804 291.05357552 -0.00403416 C293.59475517 -0.00371565 296.13593483 -0.00340128 298.67711449 -0.0030911 C300.55208072 -0.00285968 300.55208072 -0.00285968 302.46492505 -0.0026236 C311.23039853 -0.00176386 319.99586986 -0.00320958 328.761343 -0.00557065 C339.45834718 -0.00838894 350.15534403 -0.00758784 360.85234737 -0.00228991 C366.29940824 0.00031987 371.74645694 0.00139892 377.19351768 -0.00193906 C414.73999692 -0.02276265 414.73999692 -0.02276265 429.52733421 0.51381183 C430.94167307 0.55934705 430.94167307 0.55934705 432.38458443 0.60580218 C433.22392147 0.64388715 434.06325851 0.68197213 434.92803001 0.72121119 C435.63120983 0.75180853 436.33438965 0.78240587 437.05887794 0.81393039 C439.33223007 1.18216811 441.01360317 2.01308473 443.0146389 3.13072467 C443.064004 8.07862644 443.10034159 13.0263855 443.12450218 17.97447467 C443.13457207 19.65841933 443.14822878 21.34234646 443.16551781 23.02623248 C443.18972316 25.44391967 443.20111186 27.8613761 443.2099514 30.27916217 C443.22027397 31.03442187 443.23059654 31.78968158 443.24123192 32.56782794 C443.24163208 34.42366447 443.13686606 36.27891747 443.0146389 38.13072467 C440.45423574 40.69112783 438.78320656 40.3727243 435.29257154 40.39659584 C434.48338978 40.3919135 433.67420802 40.38723117 432.8405056 40.38240695 C431.98110327 40.38531383 431.12170094 40.38822071 430.23625612 40.39121568 C427.32474935 40.39857844 424.41344921 40.39154331 421.50194359 40.38469195 C419.40624317 40.38699391 417.31054356 40.39016864 415.21484566 40.39414644 C409.43120436 40.40253953 403.64762858 40.3983488 397.86398697 40.39217401 C391.63624553 40.38766887 385.40851575 40.39462359 379.1807766 40.40013385 C367.67746795 40.40853429 356.17418871 40.40777657 344.6708802 40.40231091 C334.04535187 40.39728689 323.41983126 40.39596308 312.79430199 40.3983562 C312.09046555 40.39850897 311.38662912 40.39866174 310.6614643 40.39881914 C307.80462018 40.39944178 304.94777605 40.40007858 302.09093194 40.40073867 C275.27193707 40.4068616 248.45295561 40.40130193 221.63396281 40.39054487 C197.78819141 40.38105312 173.94244137 40.38190235 150.09667015 40.39146686 C123.32784891 40.40216781 96.55903953 40.40642742 69.79021645 40.40024233 C66.93846957 40.39960086 64.08672269 40.39897518 61.23497581 40.3983562 C60.53276322 40.39819804 59.83055062 40.39803989 59.10705885 40.39787694 C48.48620176 40.39559856 37.86535321 40.39826893 27.2444973 40.40331531 C15.1724414 40.40902247 3.10041625 40.40743508 -8.97163868 40.39675382 C-15.13682615 40.39147959 -21.30197016 40.38946997 -27.46715736 40.39605212 C-33.10236732 40.40197768 -38.7374932 40.39879308 -44.37269545 40.38809702 C-46.41976319 40.38584848 -48.46683792 40.38703144 -50.51390123 40.39184859 C-53.27978017 40.39786188 -56.04536469 40.39176233 -58.8112278 40.38240695 C-59.62040956 40.38708928 -60.42959132 40.39177161 -61.26329374 40.39659584 C-66.75706036 40.35902541 -66.75706036 40.35902541 -68.9853611 38.13072467 C-69.16046496 35.4778071 -69.21691593 32.93086293 -69.1806736 30.27916217 C-69.1778437 29.50513049 -69.17501381 28.73109881 -69.17209816 27.93361163 C-69.16088863 25.4574931 -69.13578313 22.98173417 -69.1103611 20.50572467 C-69.10033228 18.82864655 -69.09120626 17.15156278 -69.08301735 15.47447467 C-69.06094684 11.35975244 -69.02641211 7.24529955 -68.9853611 3.13072467 C-66.19441093 1.57189325 -64.08710599 0.85994545 -60.89875221 0.72121119 C-59.63974665 0.66408373 -59.63974665 0.66408373 -58.35530663 0.60580218 C-57.41241405 0.57544536 -56.46952148 0.54508855 -55.49805641 0.51381183 C-54.46141476 0.47619617 -53.4247731 0.43858051 -52.35671806 0.39982498 C-34.91299481 -0.1462325 -17.44998883 -0.01069342 0 0 Z " fill="#05549B" transform="translate(68.98536109924316,470.8692753314972)"/>
<path d="M0 0 C0.89235352 0.52247314 1.78470703 1.04494629 2.70410156 1.58325195 C4.23357422 2.47270508 4.23357422 2.47270508 5.79394531 3.38012695 C7.42783203 4.34112305 7.42783203 4.34112305 9.09472656 5.3215332 C10.25193628 5.9965996 11.40949513 6.67106782 12.56738281 7.3449707 C14.97043239 8.74419125 17.37196576 10.14596256 19.77246094 11.54956055 C25.28259501 14.76852704 30.81483015 17.94918349 36.34472656 21.1340332 C38.50888121 22.38257142 40.6729434 23.63126988 42.83691406 24.88012695 C47.19538044 27.39472756 51.55484847 29.90757982 55.91503906 32.41918945 C66.36678856 38.44150649 76.80772204 44.48072658 87.21972656 50.5715332 C95.89734898 55.64678444 104.61078224 60.65662087 113.34472656 65.6340332 C123.06588273 71.1740505 132.75367314 76.76778129 142.41162109 82.41748047 C149.66684392 86.66020599 156.93826799 90.8739993 164.21972656 95.0715332 C165.28852051 95.68770508 166.35731445 96.30387695 167.45849609 96.9387207 C171.92545079 99.51310252 176.39309078 102.08629244 180.86132812 104.65844727 C183.21818947 106.01518578 185.57479581 107.37236541 187.93115234 108.72998047 C190.13479525 109.99949439 192.33886612 111.26826588 194.54345703 112.53613281 C197.4811513 114.22875055 200.41403061 115.92933162 203.34472656 117.6340332 C204.3128125 118.1933252 205.28089844 118.75261719 206.27832031 119.32885742 C207.18710937 119.86140137 208.09589844 120.39394531 209.03222656 120.94262695 C209.84046875 121.41369873 210.64871094 121.88477051 211.48144531 122.37011719 C213.34472656 123.6340332 213.34472656 123.6340332 214.34472656 125.6340332 C214.42982862 127.5933936 214.45190313 129.55566114 214.44238281 131.5168457 C214.43916016 132.68344727 214.4359375 133.85004883 214.43261719 135.05200195 C214.42423828 136.27532227 214.41585938 137.49864258 214.40722656 138.7590332 C214.40271484 139.99008789 214.39820313 141.22114258 214.39355469 142.48950195 C214.38173986 145.53772712 214.36526684 148.58585634 214.34472656 151.6340332 C210.71212311 150.26930497 207.43511249 148.6360216 204.08300781 146.68481445 C203.06013672 146.0918457 202.03726562 145.49887695 200.98339844 144.88793945 C199.88576172 144.24727539 198.788125 143.60661133 197.65722656 142.9465332 C196.49532309 142.2716994 195.33320985 141.59722665 194.17089844 140.9230957 C191.75748616 139.52296231 189.34498197 138.12128301 186.93310547 136.71850586 C181.41205586 133.50912052 175.87771055 130.32278257 170.34472656 127.1340332 C168.17799748 125.8841414 166.011331 124.63414105 163.84472656 123.3840332 C162.77222656 122.7652832 161.69972656 122.1465332 160.59472656 121.5090332 C140.01139323 109.6340332 119.4280599 97.7590332 98.84472656 85.8840332 C97.77206543 85.26520264 96.6994043 84.64637207 95.59423828 84.00878906 C93.42915586 82.75967802 91.26411674 81.51049191 89.09912109 80.26123047 C83.6585695 77.12201011 78.21725441 73.98412758 72.77441406 70.84887695 C61.34859509 64.26529931 49.94065672 57.65318551 38.55908203 50.9934082 C33.02163881 47.7596511 27.46948156 44.55334496 21.89941406 41.3762207 C20.95486862 40.83743538 20.95486862 40.83743538 19.99124146 40.2877655 C16.92345537 38.53889251 13.85408573 36.79286218 10.78271484 35.05029297 C9.66880371 34.41663818 8.55489258 33.7829834 7.40722656 33.13012695 C6.35664063 32.53570801 5.30605469 31.94128906 4.22363281 31.32885742 C1.6773179 29.82983112 -0.72722463 28.22396808 -3.15527344 26.54418945 C-6.38141947 24.24939629 -6.38141947 24.24939629 -9.04516602 25.33032227 C-11.72583166 26.66927601 -14.32707572 28.07570251 -16.91699219 29.58325195 C-17.93986328 30.1762207 -18.96273437 30.76918945 -20.01660156 31.38012695 C-21.11423828 32.02079102 -22.211875 32.66145508 -23.34277344 33.3215332 C-24.50467691 33.996367 -25.66679015 34.67083976 -26.82910156 35.3449707 C-29.24251384 36.7451041 -31.65501803 38.1467834 -34.06689453 39.54956055 C-39.58794414 42.75894589 -45.12228945 45.94528384 -50.65527344 49.1340332 C-52.82200252 50.383925 -54.988669 51.63392535 -57.15527344 52.8840332 C-174.15527344 120.3840332 -174.15527344 120.3840332 -177.40966797 122.26147461 C-179.56179474 123.50314847 -181.71381417 124.74500842 -183.86572266 125.98706055 C-188.9055832 128.89570144 -193.94644835 131.80255218 -198.99127197 134.70257568 C-200.77276922 135.72678985 -202.55391666 136.75160972 -204.33496094 137.77661133 C-206.56603969 139.06036696 -208.79776917 140.34299259 -211.03027344 141.62426758 C-215.49740992 144.19599691 -219.93142739 146.78350821 -224.27246094 149.5637207 C-227.65527344 151.6340332 -227.65527344 151.6340332 -229.65527344 151.6340332 C-229.77138738 147.38426274 -229.84249693 143.13489983 -229.90527344 138.8840332 C-229.93878906 137.6774707 -229.97230469 136.4709082 -230.00683594 135.2277832 C-230.01972656 134.06762695 -230.03261719 132.9074707 -230.04589844 131.7121582 C-230.0668457 130.64384766 -230.08779297 129.57553711 -230.109375 128.47485352 C-229.53118621 124.85775421 -228.50730722 123.87859517 -225.65527344 121.6340332 C-223.82512002 120.4534491 -221.95279933 119.336915 -220.05371094 118.27075195 C-218.93722168 117.63903076 -217.82073242 117.00730957 -216.67041016 116.35644531 C-215.45703578 115.67813318 -214.24365675 114.99982936 -213.03027344 114.3215332 C-211.76828571 113.60948861 -210.5067361 112.896667 -209.24560547 112.18310547 C-207.30123679 111.08310057 -205.35660685 109.98358892 -203.41061401 108.88645935 C-197.09248288 105.32411931 -190.80867916 101.70338645 -184.53027344 98.0715332 C-182.38186876 96.83059095 -180.23343123 95.58970559 -178.08496094 94.34887695 C-177.0250293 93.73641113 -175.96509766 93.12394531 -174.87304688 92.49291992 C-169.46856698 89.37078715 -164.06179932 86.25262116 -158.65527344 83.1340332 C-156.48859593 81.88405199 -154.32192926 80.63405199 -152.15527344 79.3840332 C-87.15527344 41.8840332 -87.15527344 41.8840332 -83.90478516 40.00878906 C-81.73970273 38.75967802 -79.57466362 37.51049191 -77.40966797 36.26123047 C-71.96911638 33.12201011 -66.52780128 29.98412758 -61.08496094 26.84887695 C-49.25401396 20.03181796 -37.43674849 13.19289984 -25.65673828 6.28808594 C-23.84358567 5.22710413 -22.02669856 4.17247022 -20.20556641 3.12524414 C-18.51293896 2.13552861 -16.83926316 1.11262605 -15.18701172 0.05688477 C-14.02854736 -0.65902832 -14.02854736 -0.65902832 -12.84667969 -1.3894043 C-12.17967041 -1.81914551 -11.51266113 -2.24888672 -10.82543945 -2.69165039 C-6.81362374 -3.93820625 -3.56140798 -1.83211453 0 0 Z " fill="#DAD8DB" transform="translate(263.6552734375,49.365966796875)"/>
<path d="M0 0 C23.1 0 46.2 0 70 0 C70 30.36 70 60.72 70 92 C46.9 92 23.8 92 0 92 C0 61.64 0 31.28 0 0 Z " fill="#F48221" transform="translate(393,348)"/>
<path d="M0 0 C23.1 0 46.2 0 70 0 C70 30.36 70 60.72 70 92 C46.9 92 23.8 92 0 92 C0 61.64 0 31.28 0 0 Z " fill="#F48221" transform="translate(49,348)"/>
<path d="M0 0 C22.44 0 44.88 0 68 0 C68 30.03 68 60.06 68 91 C45.56 91 23.12 91 0 91 C0 60.97 0 30.94 0 0 Z " fill="#F58220" transform="translate(222,348)"/>
<path d="M0 0 C0.90154816 -0.00845947 1.80309631 -0.01691895 2.73196411 -0.02563477 C3.71856522 -0.01956207 4.70516632 -0.01348938 5.72166443 -0.00723267 C6.76252197 -0.01248962 7.80337952 -0.01774658 8.8757782 -0.02316284 C12.32382617 -0.03639059 15.77141432 -0.02761534 19.21946716 -0.01748657 C21.60935556 -0.01950635 23.99924336 -0.02241698 26.38912964 -0.02618408 C31.40026207 -0.03061108 36.4112342 -0.02416357 41.42234802 -0.01016235 C47.85787222 0.00693878 54.29302137 -0.00291545 60.72853184 -0.02087975 C65.66376594 -0.03169946 70.59891052 -0.02827972 75.53414726 -0.02049637 C77.90770957 -0.01848982 80.28127991 -0.02096946 82.65483284 -0.02793503 C85.9663929 -0.03552061 89.2773379 -0.02398601 92.58885193 -0.00723267 C93.57747726 -0.01330536 94.5661026 -0.01937805 95.58468628 -0.02563477 C96.48341461 -0.01717529 97.38214294 -0.00871582 98.30810547 0 C99.09142022 0.00113108 99.87473497 0.00226215 100.68178654 0.00342751 C101.31168208 0.12801023 101.94157763 0.25259296 102.59056091 0.38095093 C105.0026856 3.99913796 104.83584344 5.68187004 104.82102966 9.98251343 C104.81909607 11.27673218 104.81716248 12.57095093 104.81517029 13.90438843 C104.80896667 14.57695679 104.80276306 15.24952515 104.79637146 15.94247437 C104.77806558 18.00542483 104.77586219 20.06792755 104.77610779 22.13095093 C104.73070424 32.2408076 104.73070424 32.2408076 103.59056091 33.38095093 C102.14842092 33.47653129 100.70162012 33.50283487 99.25631714 33.50120544 C98.32097137 33.50258011 97.38562561 33.50395477 96.42193604 33.50537109 C95.38759933 33.50177582 94.35326263 33.49818054 93.2875824 33.49447632 C92.20479004 33.49462234 91.12199768 33.49476837 90.00639343 33.49491882 C86.40812717 33.49421916 82.80991194 33.48642426 79.21165466 33.47860718 C76.72443673 33.47674319 74.23721843 33.4753192 71.75 33.47431946 C65.860349 33.47088443 59.97071701 33.4629937 54.08107382 33.45296997 C46.72030717 33.44071339 39.35953827 33.43532884 31.99876404 33.42977905 C18.86268693 33.41903907 5.72662509 33.40215182 -7.40943909 33.38095093 C-7.48363042 29.16345874 -7.53805948 24.94631282 -7.57423401 20.72836304 C-7.58931497 19.29372541 -7.60978289 17.85913384 -7.63575745 16.4246521 C-7.67217345 14.36179234 -7.68917152 12.29954235 -7.70240784 10.23641968 C-7.71811829 8.99529419 -7.73382874 7.7541687 -7.75001526 6.47543335 C-7.40943909 3.38095093 -7.40943909 3.38095093 -6.16374302 1.71135521 C-3.9519589 0.03401356 -2.75818434 0.0039808 0 0 Z " fill="#EBE9EB" transform="translate(379.40943908691406,438.6190490722656)"/>
<path d="M0 0 C1.90877438 -0.37752342 1.90877438 -0.37752342 4.28245544 -0.38095093 C5.63054794 -0.39364014 5.63054794 -0.39364014 7.00587463 -0.40658569 C7.99449997 -0.400513 8.98312531 -0.39444031 10.00170898 -0.38818359 C11.04081421 -0.39344055 12.07991943 -0.39869751 13.1505127 -0.40411377 C16.59919083 -0.41736087 20.04741059 -0.40855821 23.49609375 -0.3984375 C25.88501576 -0.40045703 28.27393717 -0.40336745 30.66285706 -0.40713501 C35.6757696 -0.41156489 40.68852204 -0.40510644 45.70141602 -0.39111328 C52.13574962 -0.37403044 58.56970759 -0.38385297 65.00402737 -0.40183067 C69.93930402 -0.41265839 74.87449127 -0.40922662 79.80977058 -0.4014473 C82.18250637 -0.39944202 84.55525021 -0.401916 86.92797661 -0.40888596 C90.241836 -0.4164826 93.55508285 -0.40492035 96.86889648 -0.38818359 C97.85549759 -0.39425629 98.84209869 -0.40032898 99.8585968 -0.40658569 C101.21091904 -0.39389648 101.21091904 -0.39389648 102.59056091 -0.38095093 C103.37425269 -0.37981985 104.15794447 -0.37868877 104.96538448 -0.37752342 C107.55235273 0.10248919 108.43977892 0.90884911 110 3 C110.34057617 6.09448242 110.34057617 6.09448242 110.29296875 9.85546875 C110.28872391 10.51710526 110.28447906 11.17874176 110.28010559 11.86042786 C110.26333693 13.9698691 110.22569099 16.07834846 110.1875 18.1875 C110.17245068 19.61912681 110.1587627 21.05076862 110.14648438 22.48242188 C110.1134403 25.98859288 110.06167167 29.49420254 110 33 C95.54467189 33.02333012 81.08934669 33.04091332 66.63400364 33.05181217 C59.92258132 33.05697489 53.21117068 33.06401713 46.49975586 33.07543945 C40.02886264 33.08626565 33.55798158 33.09227626 27.08708 33.09487724 C24.61221055 33.09673198 22.1373418 33.1003535 19.66247749 33.10573006 C16.20929627 33.11293693 12.75616599 33.11399109 9.30297852 33.11352539 C8.26864182 33.11712067 7.23430511 33.12071594 6.16862488 33.12442017 C5.23327911 33.1230455 4.29793335 33.12167084 3.33424377 33.12025452 C2.5166134 33.12117631 1.69898302 33.1220981 0.85657597 33.12304783 C-1 33 -1 33 -2 32 C-2.21818246 27.90257007 -2.18579116 23.8019736 -2.18530273 19.69921875 C-2.18748367 17.64041306 -2.20562031 15.58214788 -2.22460938 13.5234375 C-2.22654297 12.22921875 -2.22847656 10.935 -2.23046875 9.6015625 C-2.23457764 8.40869629 -2.23868652 7.21583008 -2.24291992 5.98681641 C-2 3 -2 3 0 0 Z " fill="#EBE9EB" transform="translate(30,439)"/>
<path d="M0 0 C0.89168884 -0.00845947 1.78337769 -0.01691895 2.7020874 -0.02563477 C4.16560638 -0.01652573 4.16560638 -0.01652573 5.65869141 -0.00723267 C6.68818909 -0.01248962 7.71768677 -0.01774658 8.77838135 -0.02316284 C12.18915883 -0.03639127 15.59947148 -0.02761447 19.01025391 -0.01748657 C21.37532644 -0.01950648 23.74039836 -0.02241723 26.10546875 -0.02618408 C31.06532717 -0.0306113 36.02502366 -0.02416344 40.98486328 -0.01016235 C47.35078826 0.00692956 53.71633382 -0.00290947 60.08224487 -0.02087975 C64.96690747 -0.03170674 69.85147974 -0.02827619 74.73614502 -0.02049637 C77.08376103 -0.01849137 79.43138518 -0.0209641 81.7789917 -0.02793503 C85.05682179 -0.0355315 88.33403258 -0.02397012 91.61181641 -0.00723267 C92.58749573 -0.01330536 93.56317505 -0.01937805 94.56842041 -0.02563477 C95.46010925 -0.01717529 96.3517981 -0.00871582 97.27050781 0 C98.43303574 0.00169662 98.43303574 0.00169662 99.61904907 0.00342751 C101.63525391 0.38095093 101.63525391 0.38095093 104.63525391 3.38095093 C104.63525391 13.28095093 104.63525391 23.18095093 104.63525391 33.38095093 C67.67525391 33.38095093 30.71525391 33.38095093 -7.36474609 33.38095093 C-7.36474609 23.48095093 -7.36474609 13.58095093 -7.36474609 3.38095093 C-3.98961769 0.00582252 -3.98961769 0.00582252 0 0 Z " fill="#EBE9EB" transform="translate(207.36474609375,438.6190490722656)"/>
<path d="M0 0 C36.96 0 73.92 0 112 0 C112 9.9 112 19.8 112 30 C109 33 109 33 106.96538448 33.35911274 C106.18169271 33.35157065 105.39800093 33.34402857 104.59056091 33.33625793 C103.68901276 33.33485809 102.7874646 33.33345825 101.8585968 33.33201599 C100.8719957 33.31502151 99.88539459 33.29802704 98.86889648 33.28051758 C97.82803894 33.27441467 96.7871814 33.26831177 95.71478271 33.26202393 C92.26657836 33.23780368 88.81905576 33.19163671 85.37109375 33.14453125 C82.98121599 33.12157783 80.59132793 33.09967462 78.20143127 33.07878113 C73.19020345 33.03168774 68.17923674 32.974165 63.16821289 32.90893555 C56.73291153 32.82567218 50.29763709 32.76460535 43.86202908 32.71085072 C38.92673087 32.66781299 33.99157872 32.61489212 29.05641365 32.55875206 C26.6828798 32.53260499 24.30931492 32.50913819 21.93572807 32.48835182 C18.62418102 32.45750574 15.31305534 32.41382421 12.00170898 32.36645508 C10.51877098 32.3561451 10.51877098 32.3561451 9.00587463 32.34562683 C7.65778214 32.32237839 7.65778214 32.32237839 6.28245544 32.29866028 C5.10748332 32.28451946 5.10748332 32.28451946 3.90877438 32.27009296 C2 32 2 32 0 30 C0 20.1 0 10.2 0 0 Z " fill="#DAD8DB" transform="translate(372,316)"/>
<path d="M0 0 C36.96 0 73.92 0 112 0 C112 9.9 112 19.8 112 30 C109.58893371 32.41106629 109.01403067 32.25898698 105.71754456 32.29866028 C104.36945206 32.32190872 104.36945206 32.32190872 102.99412537 32.34562683 C102.00550003 32.35250015 101.01687469 32.35937347 99.99829102 32.36645508 C98.43963318 32.38875183 98.43963318 32.38875183 96.8494873 32.41149902 C93.4010004 32.45782954 89.95256965 32.48933004 86.50390625 32.51953125 C84.11498035 32.54584788 81.72605923 32.57260206 79.33714294 32.59977722 C74.32433132 32.65428235 69.31151641 32.70104845 64.29858398 32.74291992 C57.8641056 32.79762692 51.43013009 32.87511242 44.99597263 32.95886707 C40.06080708 33.0199809 35.12558181 33.06717981 30.19022942 33.11032677 C27.817443 33.13311603 25.44469783 33.1607097 23.07202339 33.19312477 C19.75832365 33.23667496 16.44502029 33.26108695 13.13110352 33.28051758 C11.65120186 33.30600929 11.65120186 33.30600929 10.1414032 33.33201599 C9.23985504 33.33341583 8.33830688 33.33481567 7.40943909 33.33625793 C6.62574731 33.34380002 5.84205553 33.35134211 5.03461552 33.35911274 C3 33 3 33 0 30 C0 20.1 0 10.2 0 0 Z " fill="#DAD8DB" transform="translate(28,316)"/>
<path d="M0 0 C36.96 0 73.92 0 112 0 C112 29 112 29 110 32 C108.07281494 32.37752342 108.07281494 32.37752342 105.67285156 32.38095093 C104.76426392 32.3894104 103.85567627 32.39786987 102.91955566 32.40658569 C101.92000854 32.400513 100.92046143 32.39444031 99.890625 32.38818359 C98.84015991 32.39344055 97.78969482 32.39869751 96.70739746 32.40411377 C93.22144879 32.41735999 89.73595363 32.40855914 86.25 32.3984375 C83.83626212 32.4004569 81.42252484 32.40336721 79.00878906 32.40713501 C73.9446025 32.41156464 68.88057443 32.40510664 63.81640625 32.39111328 C57.3124734 32.37402123 50.80891189 32.38385897 44.30499268 32.40183067 C39.31914451 32.41265117 34.33338495 32.40923012 29.34753418 32.4014473 C26.9488521 32.39944049 24.55016207 32.40192129 22.15148926 32.40888596 C18.80389986 32.41647182 15.45691887 32.40493608 12.109375 32.38818359 C11.10982788 32.39425629 10.11028076 32.40032898 9.08044434 32.40658569 C8.17185669 32.39812622 7.26326904 32.38966675 6.32714844 32.38095093 C5.13916656 32.37925431 5.13916656 32.37925431 3.92718506 32.37752342 C2.97322845 32.19064933 2.97322845 32.19064933 2 32 C-3.92834708 23.10747937 0 10.68747969 0 0 Z " fill="#DAD8DB" transform="translate(200,316)"/>
<path d="M0 0 C0.91265625 -0.020625 1.8253125 -0.04125 2.765625 -0.0625 C9.84210138 -0.1028218 16.26671596 0.72420117 22.1796875 4.86328125 C28.34120809 11.53059831 30.2833556 16.26271175 30.13671875 25.421875 C29.875 28.25 29.875 28.25 28.5 31.5 C27.55392808 34.20765311 27.55392808 34.20765311 29.0078125 36.171875 C30.09533447 37.569367 31.20535659 38.94960795 32.3359375 40.3125 C35.57599114 44.39134926 36.36242813 48.89935047 36.17578125 54.046875 C35.06123816 62.21054125 31.43309815 67.35891891 25.2890625 72.65625 C18.22297072 77.32124263 10.39186265 76.61701778 2.25 76.625 C0.91405457 76.6493076 -0.42188314 76.67404338 -1.7578125 76.69921875 C-3.66046875 76.70501953 -3.66046875 76.70501953 -5.6015625 76.7109375 C-7.335271 76.72326416 -7.335271 76.72326416 -9.10400391 76.73583984 C-12.74690291 76.1499849 -13.87149435 75.10461781 -16.125 72.25 C-17.49552737 69.50894525 -17.27497252 67.29544722 -17.30200195 64.22729492 C-17.31483719 62.96225632 -17.32767242 61.69721771 -17.34089661 60.3938446 C-17.34906422 59.00605663 -17.35650791 57.61826423 -17.36328125 56.23046875 C-17.36735678 55.53245966 -17.3714323 54.83445057 -17.37563133 54.11528969 C-17.39649222 50.4202059 -17.41079334 46.72515924 -17.42016602 43.0300293 C-17.43122572 39.21666395 -17.46561953 35.40388291 -17.50533772 31.59072399 C-17.53150691 28.65585763 -17.5398581 25.72113037 -17.54344749 22.78615761 C-17.5483134 21.38075124 -17.55992771 19.97535109 -17.57848549 18.57005882 C-17.60287651 16.6004788 -17.59949215 14.63061453 -17.5949707 12.66088867 C-17.60083694 11.54107101 -17.60670319 10.42125336 -17.61274719 9.26750183 C-17.01126681 5.54637705 -15.76620229 3.89572147 -13.125 1.25 C-8.77182305 -0.20105898 -4.56074132 0.02512805 0 0 Z " fill="#020202" transform="translate(136.125,169.75)"/>
<path d="M0 0 C4.96452574 0.78387249 6.89216029 3.39605577 9.90893555 7.30883789 C11.36497191 9.31143522 12.78108733 11.33726017 14.1875 13.375 C14.95876221 14.47811523 14.95876221 14.47811523 15.74560547 15.60351562 C18.42952258 19.45103749 21.08208139 23.31919609 23.71875 27.19921875 C24.46777588 28.29882935 24.46777588 28.29882935 25.23193359 29.4206543 C26.18736867 30.82656372 27.13837138 32.23549763 28.08447266 33.64770508 C30.3025789 37.15457501 30.3025789 37.15457501 33.5625 39.5625 C33.53631592 38.48766357 33.51013184 37.41282715 33.4831543 36.30541992 C33.39268456 32.31930339 33.33526355 28.33327758 33.2878418 24.34643555 C33.26268995 22.62069441 33.22856381 20.89505988 33.18530273 19.16967773 C33.12467567 16.68967419 33.09629899 14.21107778 33.07421875 11.73046875 C33.04841232 10.95849655 33.0226059 10.18652435 32.99601746 9.39115906 C32.99487305 7.20776367 32.99487305 7.20776367 33.5625 3.5625 C36.48330024 1.0618212 38.24706546 0.60756208 42.0625 0.0625 C45.48295977 0.55113711 47.17705226 1.06491627 49.5324707 3.59887695 C52.04609571 8.39079113 51.22478056 14.37247662 51.15625 19.65625 C51.15453757 21.04960019 51.15460592 22.44295359 51.15637207 23.83630371 C51.15472135 26.75169849 51.13607126 29.66632196 51.10449219 32.58154297 C51.06481423 36.3107627 51.06044823 40.03897318 51.06795502 43.76836395 C51.07103062 46.64411599 51.05888344 49.51964287 51.04182434 52.39533997 C51.03481366 53.7699899 51.03166746 55.14466534 51.03251648 56.51933289 C51.03071063 58.44329875 51.00701347 60.36720608 50.98242188 62.29101562 C50.97400269 63.38401978 50.9655835 64.47702393 50.95690918 65.60314941 C50.51101122 68.94883319 49.59368277 70.88429162 47.5625 73.5625 C46.9025 73.5625 46.2425 73.5625 45.5625 73.5625 C45.5625 74.2225 45.5625 74.8825 45.5625 75.5625 C42.70488773 75.98068716 40.49110499 76.12678004 37.95703125 74.58691406 C32.60081982 70.07993568 28.94922826 64.75922236 25.125 58.9375 C24.50818359 58.01582031 23.89136719 57.09414062 23.25585938 56.14453125 C21.34834044 53.29020011 19.45533289 50.42658656 17.5625 47.5625 C16.07367133 45.32414341 14.58171645 43.0878938 13.08984375 40.8515625 C12.4155835 39.8404541 11.74132324 38.8293457 11.04663086 37.78759766 C10.55686768 37.05331543 10.06710449 36.3190332 9.5625 35.5625 C9.54791748 36.56627686 9.53333496 37.57005371 9.51831055 38.60424805 C9.46017948 42.3412575 9.38294835 46.07767369 9.30004883 49.81420898 C9.2668689 51.42901963 9.23881542 53.04394431 9.21606445 54.65893555 C9.18238975 56.98535592 9.13007037 59.31073783 9.07421875 61.63671875 C9.06463387 62.71357185 9.06463387 62.71357185 9.05485535 63.81217957 C8.92706144 68.20447334 8.25967057 71.06258533 5.5625 74.5625 C2.43389505 76.12680248 0.00647075 75.91877284 -3.4375 75.5625 C-6.16897456 72.93179368 -7.32458507 71.24718415 -7.94543457 67.48252869 C-7.94861694 66.33321365 -7.95179932 65.18389862 -7.95507812 63.99975586 C-7.96768677 62.69167465 -7.98029541 61.38359344 -7.99328613 60.03587341 C-7.98612686 58.61635802 -7.97792301 57.19684756 -7.96875 55.77734375 C-7.97144629 54.31433352 -7.97532986 52.85132504 -7.98034668 51.38832092 C-7.98623353 48.32763546 -7.97770448 45.26741803 -7.95898438 42.20678711 C-7.93617421 38.28679965 -7.94933479 34.36790645 -7.97327423 30.44795895 C-7.98773748 27.42899854 -7.98312435 24.41029708 -7.97276306 21.39132881 C-7.97009824 19.94605949 -7.97335701 18.50076652 -7.98268127 17.05552483 C-7.99285567 15.03563776 -7.97459426 13.01566802 -7.95507812 10.99584961 C-7.95189575 9.84733017 -7.94871338 8.69881073 -7.94543457 7.51548767 C-7.09173086 2.55229621 -4.86313406 0.79578557 0 0 Z " fill="#040404" transform="translate(271.4375,170.4375)"/>
<path d="M0 0 C0.74121094 -0.03351563 1.48242188 -0.06703125 2.24609375 -0.1015625 C5.84295065 1.02662533 7.58023542 3.56647597 9.5625 6.625 C11.40060957 10.53928537 12.8757808 14.56771796 14.35546875 18.62890625 C14.78757156 19.78494858 15.21967438 20.94099091 15.66487122 22.13206482 C17.03793847 25.81310288 18.39425335 29.50005202 19.75 33.1875 C20.67270839 35.67164016 21.59652484 38.15536904 22.52148438 40.63867188 C24.55684829 46.10597915 26.58140164 51.57715712 28.59635925 57.05201721 C29.2502865 58.79352699 29.94049673 60.52176809 30.66304016 62.23594666 C31.91127923 65.55139176 31.94544393 68.11468067 31.5625 71.625 C30 74.0625 30 74.0625 27.5625 75.625 C23.70119738 76.17661466 21.5597787 76.31755466 18.3125 74.0625 C15.5380853 70.19813667 13.5625 66.43300175 13.5625 61.625 C4.9825 61.955 -3.5975 62.285 -12.4375 62.625 C-14.4175 67.575 -14.4175 67.575 -16.4375 72.625 C-20.4375 75.625 -20.4375 75.625 -23.9375 76.125 C-27.4375 75.625 -27.4375 75.625 -29.875 73.5 C-31.98786923 69.61232063 -32.07109001 66.77804245 -30.81268311 62.50177002 C-29.90444406 59.96989951 -28.92993653 57.47351849 -27.9296875 54.9765625 C-27.56658478 54.04637299 -27.20348206 53.11618347 -26.82937622 52.1578064 C-25.66655127 49.18471999 -24.48996722 46.21731392 -23.3125 43.25 C-22.16309552 40.32613579 -21.01653531 37.40116897 -19.87042236 34.47601318 C-19.12110993 32.56695888 -18.36913505 30.65894736 -17.61444092 28.75201416 C-15.9143214 24.44817236 -14.24427209 20.14110157 -12.68457031 15.78417969 C-12.41927521 15.04815521 -12.1539801 14.31213074 -11.88064575 13.55380249 C-11.18703303 11.61267754 -10.50723006 9.66663308 -9.82861328 7.72021484 C-7.70054109 2.9852729 -5.37913544 0.05593555 0 0 Z " fill="#020202" transform="translate(216.4375,170.375)"/>
<path d="M0 0 C2.671875 1.078125 2.671875 1.078125 5 3 C5.70703125 6.35546875 5.70703125 6.35546875 5.8125 10.1875 C5.86019531 11.45980469 5.90789062 12.73210937 5.95703125 14.04296875 C5.97121094 15.01878906 5.98539062 15.99460938 6 17 C11.07734611 13.92686946 15.2784467 10.14311699 19.6328125 6.12109375 C25.2423756 1.09470305 25.2423756 1.09470305 29.5 0.5625 C33 1 33 1 35.4375 2.5625 C37.63585433 5.99193275 37.50721176 7.97164876 37 12 C35.33790095 14.53887573 33.23955841 16.46897229 31 18.5 C30.11066772 19.34582642 30.11066772 19.34582642 29.20336914 20.20874023 C25.42151674 23.78051833 21.55364856 27.26399742 17.58984375 30.6328125 C15.62342114 32.32383931 13.79556567 34.12961909 12 36 C13.31270914 38.90221328 14.71898982 40.96712292 16.9765625 43.20703125 C17.56139404 43.79049316 18.14622559 44.37395508 18.7487793 44.97509766 C19.36793213 45.58144043 19.98708496 46.1877832 20.625 46.8125 C21.57016479 47.74908447 21.57016479 47.74908447 22.53442383 48.70458984 C26.3757921 52.48620679 30.27928983 56.14930652 34.44921875 59.5703125 C37.53876695 62.41861134 38.90884103 64.27072822 39.4375 68.5 C39 72 39 72 37.4375 74.4375 C34.01222676 76.63318797 32.02569292 76.48859551 28 76 C25.43341028 74.41056974 23.41884023 72.39881685 21.3125 70.25 C20.75755859 69.71117187 20.20261719 69.17234375 19.63085938 68.6171875 C17.34387149 66.38730632 15.111948 64.11845905 12.91796875 61.796875 C10.78197883 59.79574391 8.55251371 58.41806317 6 57 C5.97873047 58.68029297 5.97873047 58.68029297 5.95703125 60.39453125 C5.91013006 61.86722869 5.86188266 63.33988368 5.8125 64.8125 C5.80669922 65.55048828 5.80089844 66.28847656 5.79492188 67.04882812 C5.70703125 69.20703125 5.70703125 69.20703125 5 73 C2.02820421 75.53300715 0.32816418 75.95969914 -3.5625 76.4375 C-7 76 -7 76 -9.18249512 74.38720703 C-11.58446558 71.232332 -11.50700583 69.31078874 -11.51757812 65.3671875 C-11.52809204 64.3810849 -11.52809204 64.3810849 -11.53881836 63.37506104 C-11.55638431 61.20794083 -11.54478235 59.04213284 -11.53125 56.875 C-11.53394536 55.36572011 -11.53782815 53.85644192 -11.54284668 52.34716797 C-11.54873976 49.18635501 -11.5401855 46.02599466 -11.52148438 42.86523438 C-11.49869419 38.81631443 -11.5118184 34.76845502 -11.53577423 30.71957397 C-11.55023778 27.60367867 -11.54562383 24.48803426 -11.53526306 21.37213135 C-11.53259728 19.8794136 -11.53586038 18.38667296 -11.54518127 16.89398193 C-11.55535695 14.80631296 -11.53983569 12.72035426 -11.51757812 10.6328125 C-11.51439575 9.44574707 -11.51121338 8.25868164 -11.50793457 7.03564453 C-10.38162923 0.30433928 -6.23582986 -0.76580367 0 0 Z " fill="#020202" transform="translate(355,170)"/>
<path d="M0 0 C6.85134625 3.90405765 11.37886049 9.32558276 13.625 16.9375 C14.65533032 26.14687223 13.12246535 32.04104851 7.828125 39.453125 C3.34664585 44.50670787 -2.92705391 47.28913156 -9.51171875 48.52734375 C-15.96211041 48.86596866 -20.28912867 47.66002027 -25.40625 43.7109375 C-31.03468399 38.6408799 -35.63920583 33.39691105 -36.69140625 25.58984375 C-37.06942801 17.70016381 -34.49424822 12.17870317 -30.25 5.6875 C-21.70600759 -2.48501448 -10.96205375 -4.95432159 0 0 Z " fill="#F48220" transform="translate(268.375,92.0625)"/>
<path d="M0 0 C0.08097324 2.27024968 0.13917704 4.54132075 0.1875 6.8125 C0.23970703 8.70935547 0.23970703 8.70935547 0.29296875 10.64453125 C0 14 0 14 -1.2427206 15.68870068 C-3.46433333 17.34649014 -4.65492116 17.36276684 -7.40943909 17.33625793 C-8.31098724 17.33485809 -9.2125354 17.33345825 -10.1414032 17.33201599 C-11.1280043 17.31502151 -12.11460541 17.29802704 -13.13110352 17.28051758 C-14.17196106 17.27441467 -15.2128186 17.26831177 -16.28521729 17.26202393 C-19.73342164 17.23780368 -23.18094424 17.19163671 -26.62890625 17.14453125 C-29.01878401 17.12157783 -31.40867207 17.09967462 -33.79856873 17.07878113 C-38.80979655 17.03168774 -43.82076326 16.974165 -48.83178711 16.90893555 C-55.26708847 16.82567218 -61.70236291 16.76460535 -68.13797092 16.71085072 C-73.07326913 16.66781299 -78.00842128 16.61489212 -82.94358635 16.55875206 C-85.3171202 16.53260499 -87.69068508 16.50913819 -90.06427193 16.48835182 C-93.37581898 16.45750574 -96.68694466 16.41382421 -99.99829102 16.36645508 C-101.48122902 16.3561451 -101.48122902 16.3561451 -102.99412537 16.34562683 C-103.8928537 16.33012787 -104.79158203 16.31462891 -105.71754456 16.29866028 C-106.89251668 16.28451946 -106.89251668 16.28451946 -108.09122562 16.27009296 C-110 16 -110 16 -112 14 C-112.1953125 10.9609375 -112.1953125 10.9609375 -112.125 7.375 C-112.10695313 6.18648438 -112.08890625 4.99796875 -112.0703125 3.7734375 C-112.04710937 2.85820312 -112.02390625 1.94296875 -112 1 C-97.54466837 0.86956161 -83.08933628 0.73917498 -68.63400364 0.60884857 C-61.92258749 0.54833885 -55.2111715 0.4878122 -48.49975586 0.42724609 C-42.02886426 0.36885224 -35.55797227 0.31050177 -29.08708 0.25218201 C-26.61221236 0.22986919 -24.13734485 0.20754046 -21.66247749 0.18519592 C-18.20931154 0.15402139 -14.75614509 0.12290229 -11.30297852 0.09179688 C-9.75147346 0.07777077 -9.75147346 0.07777077 -8.16862488 0.0634613 C-7.23327911 0.05504715 -6.29793335 0.046633 -5.33424377 0.03796387 C-4.10779821 0.02690235 -4.10779821 0.02690235 -2.85657597 0.01561737 C-1.90440343 0.00760777 -0.95220622 0 0 0 Z " fill="#EBE9EB" transform="translate(484,332)"/>
<path d="M0 0 C36.96 0 73.92 0 112 0 C112 4.29 112 8.58 112 13 C109.58893371 15.41106629 109.01403067 15.25898698 105.71754456 15.29866028 C104.36945206 15.32190872 104.36945206 15.32190872 102.99412537 15.34562683 C102.00550003 15.35250015 101.01687469 15.35937347 99.99829102 15.36645508 C98.43963318 15.38875183 98.43963318 15.38875183 96.8494873 15.41149902 C93.4010004 15.45782954 89.95256965 15.48933004 86.50390625 15.51953125 C84.11498035 15.54584788 81.72605923 15.57260206 79.33714294 15.59977722 C74.32433132 15.65428235 69.31151641 15.70104845 64.29858398 15.74291992 C57.8641056 15.79762692 51.43013009 15.87511242 44.99597263 15.95886707 C40.06080708 16.0199809 35.12558181 16.06717981 30.19022942 16.11032677 C27.817443 16.13311603 25.44469783 16.1607097 23.07202339 16.19312477 C19.75832365 16.23667496 16.44502029 16.26108695 13.13110352 16.28051758 C11.65120186 16.30600929 11.65120186 16.30600929 10.1414032 16.33201599 C9.23985504 16.33341583 8.33830688 16.33481567 7.40943909 16.33625793 C6.62574731 16.34380002 5.84205553 16.35134211 5.03461552 16.35911274 C3 16 3 16 0 13 C0 8.71 0 4.42 0 0 Z " fill="#EBE9EB" transform="translate(28,333)"/>
<path d="M0 0 C36.3 0 72.6 0 110 0 C110 4.62 110 9.24 110 14 C108.44246689 15.55753311 106.95307799 15.12595507 104.78637695 15.12698364 C103.42338974 15.13121338 103.42338974 15.13121338 102.03286743 15.13552856 C100.52579727 15.13249222 100.52579727 15.13249222 98.98828125 15.12939453 C97.9363559 15.13114685 96.88443054 15.13289917 95.80062866 15.13470459 C92.30456926 15.13912543 88.80855997 15.13618429 85.3125 15.1328125 C82.89493805 15.13348547 80.47737617 15.13445544 78.05981445 15.13571167 C72.98550779 15.13718896 67.91121869 15.13503309 62.83691406 15.13037109 C56.31615297 15.1246738 49.79543304 15.12795263 43.27467346 15.13394356 C38.28031094 15.13754833 33.28595826 15.13641097 28.29159546 15.13381577 C25.88650508 15.13314626 23.48141382 15.13397572 21.07632446 15.13629532 C17.72143165 15.13882048 14.3666065 15.13498317 11.01171875 15.12939453 C10.00700531 15.13141876 9.00229187 15.13344299 7.96713257 15.13552856 C7.05847443 15.13270874 6.14981628 15.12988892 5.21362305 15.12698364 C4.41941452 15.12660662 3.62520599 15.12622959 2.80693054 15.12584114 C1 15 1 15 0 14 C0 9.38 0 4.76 0 0 Z " fill="#EBE9EB" transform="translate(201,333)"/>
<path d="M0 0 C2.5575 -0.061875 5.115 -0.12375 7.75 -0.1875 C8.94834473 -0.22846802 8.94834473 -0.22846802 10.17089844 -0.27026367 C13.32083354 -0.30715838 15.63230151 -0.19059332 18.44921875 1.26953125 C20.19013104 3.21216134 20.70773416 4.30669518 21.0625 6.875 C21.23458984 7.86113281 21.23458984 7.86113281 21.41015625 8.8671875 C20.71440371 12.48510071 18.88884508 13.83336619 16 16 C13.18835853 16.58293192 10.54285678 16.47706968 7.6875 16.3125 C5.150625 16.209375 2.61375 16.10625 0 16 C0 10.72 0 5.44 0 0 Z " fill="#E1DFE1" transform="translate(135,214)"/>
<path d="M0 0 C10.33241842 -0.36901494 10.33241842 -0.36901494 13.33203125 1.2890625 C15 3 15 3 15.4375 6.5625 C15.293125 7.696875 15.14875 8.83125 15 10 C10.25368713 13.16420858 5.63243123 12.12112755 0 12 C0 8.04 0 4.08 0 0 Z " fill="#DAD9DA" transform="translate(135,186)"/>
<path d="M0 0 C3.16074764 1.58037382 3.54298175 4.76378948 4.625 7.9375 C4.85445312 8.58396484 5.08390625 9.23042969 5.3203125 9.89648438 C7 14.71058873 7 14.71058873 7 17 C2.71 17 -1.58 17 -6 17 C-4.31108451 11.12900806 -2.53630629 5.55571853 0 0 Z " fill="#CAC8CA" transform="translate(216,199)"/>
</svg>
