<?xml version="1.0" encoding="UTF-8"?>
<svg version="1.1" xmlns="http://www.w3.org/2000/svg" width="512" height="512">
<path d="M0 0 C0.80405273 0.25475098 1.60810547 0.50950195 2.43652344 0.77197266 C20.32564237 6.57847341 37.50157046 14.92597673 52 27 C52.63421875 27.47308594 53.2684375 27.94617187 53.921875 28.43359375 C70.32340314 41.11092169 78.91323321 62.81615407 82.25 82.5625 C84.12771321 98.62365408 83.82106556 115.25294385 81.625 131.25 C80.91911054 136.59922716 80.47211604 140.56587932 83.6875 145.1875 C84.78787471 146.46161808 85.89178363 147.73269661 87 149 C91.49661311 157.20836284 91.24305775 168.25524724 89.30859375 177.1953125 C86.25946546 186.35545524 81.76094395 192.63249392 73.1484375 197.08984375 C71 198 71 198 68.95678711 198.3125 C66.85980312 198.80010167 66.85980312 198.80010167 66.10620117 200.69555664 C65.82740112 201.79178345 65.82740112 201.79178345 65.54296875 202.91015625 C65.3214917 203.72718018 65.10001465 204.5442041 64.87182617 205.38598633 C64.64599854 206.26923584 64.4201709 207.15248535 64.1875 208.0625 C55.95062177 237.59793018 38.27939672 266.02841896 13 284 C11.79601562 284.50144531 10.59203125 285.00289063 9.3515625 285.51953125 C5.19714696 287.29935135 2.88960746 288.48670397 0 292 C-2.22294078 299.98704381 -2.11999974 308.99917905 0 317 C2.48300795 321.36674714 6.49412461 323.12464963 11 325 C11.54028336 325.5114003 12.08056671 326.0228006 12.63722229 326.54969788 C16.14145913 328.70064171 19.61241367 328.40662587 23.60131836 328.36889648 C24.46859558 328.37266296 25.3358728 328.37642944 26.22943115 328.38031006 C28.11241005 328.38674299 29.99542141 328.38641206 31.8784008 328.38012505 C34.86915021 328.37100438 37.85927387 328.38125338 40.84999084 328.39674377 C49.35319017 328.43679428 57.85634118 328.43805933 66.35961914 328.43579102 C71.56448369 328.43573959 76.76901448 328.45507711 81.97378731 328.48512459 C84.90120506 328.49586037 87.82796017 328.48386722 90.75535583 328.47129822 C106.5478822 328.50084949 119.78359063 330.88593923 132.02734375 341.80859375 C141.07521764 351.33162951 144.78986934 364.51875401 148.78125 376.72265625 C149.31735647 378.33916818 149.85425082 379.955419 150.39187622 381.57142639 C151.81334702 385.85182264 153.22359722 390.13583169 154.63117218 394.42081451 C156.08468933 398.84025766 157.54763495 403.25657886 159.00927734 407.67333984 C161.57974654 415.44596333 164.14072849 423.22167125 166.69693184 430.99899673 C168.7020917 437.0984179 170.71698322 443.19455154 172.73577881 449.28947449 C174.07560811 453.33778504 175.40995006 457.38787894 176.74145508 461.43893433 C177.32661533 463.21788051 177.91334593 464.99631097 178.50170898 466.77420044 C179.29092132 469.16268014 180.07252517 471.55349824 180.8515625 473.9453125 C181.07522491 474.61756363 181.29888733 475.28981476 181.52932739 475.98243713 C182.57243175 479.21577325 183 481.54443397 183 485 C29.88 485 -123.24 485 -281 485 C-279.87498799 477.12491594 -279.87498799 477.12491594 -278.59138489 473.2484436 C-278.30418579 472.37148834 -278.01698669 471.49453308 -277.72108459 470.59100342 C-277.24970314 469.18204803 -277.24970314 469.18204803 -276.76879883 467.74462891 C-276.43691559 466.73703522 -276.10503235 465.72944153 -275.76309204 464.6913147 C-274.66676717 461.36781775 -273.56201488 458.04718966 -272.45703125 454.7265625 C-271.68765814 452.40090126 -270.91876003 450.07508283 -270.15031433 447.74911499 C-268.53730314 442.87077373 -266.92045831 437.99372675 -265.30053711 433.11767578 C-263.2389319 426.91202564 -261.18382917 420.70424911 -259.13127613 414.49559975 C-257.15881231 408.53016371 -255.18304039 402.56582492 -253.20703125 396.6015625 C-252.83698282 395.48374012 -252.46693439 394.36591774 -252.08567238 393.21422195 C-248.67183023 382.90837471 -245.25230093 372.60364799 -241.69799805 362.34521484 C-241.47155263 361.6798855 -241.24510721 361.01455616 -241.01179981 360.32906532 C-236.1904277 346.58017092 -227.92165916 338.60788804 -215.125 332.26171875 C-208.29116747 329.50255887 -202.21087186 328.71537966 -194.92871094 328.82397461 C-194.05924332 328.82838562 -193.1897757 328.83279663 -192.29396057 328.83734131 C-190.41865384 328.84713498 -188.5433646 328.86095742 -186.66811371 328.87843132 C-182.66439295 328.911065 -178.66092441 328.90839991 -174.65709305 328.90814304 C-167.21947134 328.90828618 -159.78250989 328.92334666 -152.34521484 328.99633789 C-147.1548816 329.04591997 -141.9660793 329.05120188 -136.77558136 329.02820015 C-134.8093466 329.02763484 -132.84303353 329.04311981 -130.87706757 329.07563591 C-119.5359254 329.25560232 -111.83802732 328.92064156 -103.18682861 321.12794495 C-102.46517517 320.42572311 -101.74352173 319.72350128 -101 319 C-100.01 318.34 -99.02 317.68 -98 317 C-96.16152795 309.22737089 -96.18602853 299.76081972 -98 292 C-100.75110714 287.60530025 -105.4624547 285.92862305 -110.05859375 283.94873047 C-113.33184629 282.34915057 -115.95993443 280.07489487 -118.6875 277.6875 C-119.22109131 277.22601563 -119.75468262 276.76453125 -120.30444336 276.2890625 C-141.22698553 257.82479915 -156.79159714 232.29003153 -162.875 205 C-164.00038923 200.46451764 -164.00038923 200.46451764 -167.28515625 197.3984375 C-169.83490601 196.41458708 -172.3580897 195.68956876 -175 195 C-181.43126604 191.19970643 -184.836356 184.12068164 -187.375 177.3125 C-189.37070851 167.04291662 -188.96087798 156.32474486 -184 147 C-183.10490019 145.89784137 -182.20900554 144.796328 -181.3125 143.6953125 C-178.9442093 140.43371532 -178.64273114 138.22128788 -179.27270508 134.15332031 C-179.4095874 133.40147461 -179.54646973 132.64962891 -179.6875 131.875 C-180.99186951 122.47324428 -181.27959537 113.16897403 -181.30459595 103.69293213 C-181.30978591 102.08885445 -181.32112464 100.48478254 -181.33920288 98.88079834 C-181.55150073 78.93942354 -178.99439551 58.35601237 -165 43 C-156.79454724 35.87306145 -147.6230006 33.64314617 -137 33 C-137.15855469 32.44570313 -137.31710938 31.89140625 -137.48046875 31.3203125 C-139.58339587 21.92829215 -137.47817824 13.99985747 -132.75 5.84375 C-126.73470507 -3.04248115 -117.28890838 -8.48773894 -107 -11 C-72.23844684 -17.26932502 -33.25338536 -10.59845412 0 0 Z " fill="#F9B586" transform="translate(305,20)"/>
<path d="M0 0 C0.46753223 5.4935037 -0.58542452 8.9591183 -3.02734375 13.88671875 C-8.23659275 25.20480593 -5.35412034 40.96788471 -2.89453125 52.6328125 C-2.673311 53.70807693 -2.45209076 54.78334137 -2.22416687 55.89118958 C0.0759042 66.80645955 2.89758467 77.57323576 5.79064941 88.34362793 C11.468583 109.51357958 16.55975114 130.74177115 20.97924805 152.2097168 C21.17111191 153.13042465 21.36297577 154.05113251 21.56065369 154.9997406 C21.91628091 156.7113023 22.26522735 158.42427118 22.60621643 160.1388092 C23.42534162 164.5028538 23.42534162 164.5028538 26 168 C-43.63 168 -113.26 168 -185 168 C-183.87498799 160.12491594 -183.87498799 160.12491594 -182.59138489 156.2484436 C-182.30418579 155.37148834 -182.01698669 154.49453308 -181.72108459 153.59100342 C-181.40683029 152.65169983 -181.09257599 151.71239624 -180.76879883 150.74462891 C-180.43691559 149.73703522 -180.10503235 148.72944153 -179.76309204 147.6913147 C-178.66676717 144.36781775 -177.56201488 141.04718966 -176.45703125 137.7265625 C-175.68765814 135.40090126 -174.91876003 133.07508283 -174.15031433 130.74911499 C-172.53730314 125.87077373 -170.92045831 120.99372675 -169.30053711 116.11767578 C-167.2389319 109.91202564 -165.18382917 103.70424911 -163.13127613 97.49559975 C-161.15881231 91.53016371 -159.18304039 85.56582492 -157.20703125 79.6015625 C-156.83698282 78.48374012 -156.46693439 77.36591774 -156.08567238 76.21422195 C-152.67183023 65.90837471 -149.25230093 55.60364799 -145.69799805 45.34521484 C-145.47155263 44.6798855 -145.24510721 44.01455616 -145.01179981 43.32906532 C-140.1904277 29.58017092 -131.92165916 21.60788804 -119.125 15.26171875 C-112.29116747 12.50255887 -106.21087186 11.71537966 -98.92871094 11.82397461 C-98.05924332 11.82838562 -97.1897757 11.83279663 -96.29396057 11.83734131 C-94.41865384 11.84713498 -92.5433646 11.86095742 -90.66811371 11.87843132 C-86.66439295 11.911065 -82.66092441 11.90839991 -78.65709305 11.90814304 C-71.21947134 11.90828618 -63.78250989 11.92334666 -56.34521484 11.99633789 C-51.1548816 12.04591997 -45.9660793 12.05120188 -40.77558136 12.02820015 C-38.8093466 12.02763484 -36.84303353 12.04311981 -34.87706757 12.07563591 C-23.5359254 12.25560232 -15.83802732 11.92064156 -7.18682861 4.12794495 C-6.46517517 3.42572311 -5.74352173 2.72350128 -5 2 C-2 0 -2 0 0 0 Z " fill="#1468B2" transform="translate(209,337)"/>
<path d="M0 0 C4.30145515 1.40627555 6.7275477 3.51993879 10.02368164 6.56518555 C18.21106807 13.21874435 27.57473525 12.15635302 37.62109375 11.95703125 C39.61303708 11.95251667 41.60499546 11.95257496 43.59693909 11.95695496 C48.81548498 11.95890841 54.03223824 11.91088842 59.25036621 11.84838867 C67.59515356 11.75442232 75.94004099 11.72663013 84.28529549 11.71875572 C87.17762072 11.7073024 90.06854808 11.66802127 92.96055603 11.62519836 C108.71138509 11.48544571 121.81899384 13.91752244 134.02734375 24.80859375 C143.07521764 34.33162951 146.78986934 47.51875401 150.78125 59.72265625 C151.31735647 61.33916818 151.85425082 62.955419 152.39187622 64.57142639 C153.81334702 68.85182264 155.22359722 73.13583169 156.63117218 77.42081451 C158.08468933 81.84025766 159.54763495 86.25657886 161.00927734 90.67333984 C163.57974654 98.44596333 166.14072849 106.22167125 168.69693184 113.99899673 C170.7020917 120.0984179 172.71698322 126.19455154 174.73577881 132.28947449 C176.07560811 136.33778504 177.40995006 140.38787894 178.74145508 144.43893433 C179.32661533 146.21788051 179.91334593 147.99631097 180.50170898 149.77420044 C181.29092132 152.16268014 182.07252517 154.55349824 182.8515625 156.9453125 C183.07522491 157.61756363 183.29888733 158.28981476 183.52932739 158.98243713 C184.57243175 162.21577325 185 164.54443397 185 168 C115.37 168 45.74 168 -26 168 C-25.01 167.01 -25.01 167.01 -24 166 C-23.39343623 164.20291883 -23.39343623 164.20291883 -23.0012207 162.10351562 C-22.742882 160.87974716 -22.742882 160.87974716 -22.47932434 159.6312561 C-22.29665512 158.73200409 -22.1139859 157.83275208 -21.92578125 156.90625 C-21.50899243 154.93331919 -21.09164657 152.96050599 -20.67382812 150.98779297 C-20.45283447 149.9328363 -20.23184082 148.87787964 -20.00415039 147.79095459 C-15.03886711 124.16554783 -9.24115567 100.8225835 -3.0402832 77.49804688 C3.33059002 54.42738444 3.33059002 54.42738444 5.4375 30.6875 C5.43157837 29.28612793 5.43157837 29.28612793 5.42553711 27.85644531 C5.28265162 21.00511594 4.25463563 15.11714648 1 9 C-0.4783226 6.04335481 -0.06032783 3.25770263 0 0 Z " fill="#1468B2" transform="translate(303,337)"/>
<path d="M0 0 C0.80405273 0.25475098 1.60810547 0.50950195 2.43652344 0.77197266 C20.32564237 6.57847341 37.50157046 14.92597673 52 27 C52.63421875 27.47308594 53.2684375 27.94617187 53.921875 28.43359375 C70.32340314 41.11092169 78.91323321 62.81615407 82.25 82.5625 C84.46983736 101.55003738 83.46572031 121.08880583 81 140 C80.01 140.33 79.02 140.66 78 141 C75.96166576 139.7260411 73.96147874 138.38938077 72 137 C66.47882667 135.15960889 61.87603089 135.30439097 56.6875 137.8125 C54.57709515 138.92977316 53.10009004 139.89382854 51.45703125 141.63671875 C50 143 50 143 47 143 C46.89977539 142.23969482 46.79955078 141.47938965 46.69628906 140.69604492 C46.22690466 137.19136129 45.73857445 133.68955792 45.25 130.1875 C45.09273437 128.99189453 44.93546875 127.79628906 44.7734375 126.56445312 C42.99151688 113.98820566 40.00967386 102.54815913 29.81640625 94.21484375 C15.92961891 84.93418292 -2.71054571 86.023586 -18.78076172 85.70996094 C-42.07587634 85.25375137 -65.06919049 83.67459947 -88 79.3125 C-106.39138686 75.37786992 -106.39138686 75.37786992 -124.17578125 79.69921875 C-136.964522 88.81838506 -137.52652647 108.98522919 -140.25 123.375 C-140.61661115 125.28656896 -140.98379482 127.19802821 -141.3515625 129.109375 C-142.24096716 133.73834758 -143.12265693 138.36872688 -144 143 C-147.54085826 142.36373501 -149.78180853 141.73300883 -152.625 139.5 C-156.53145213 136.45968431 -159.79917492 135.6662232 -164.80859375 135.703125 C-167.97667782 136.13231286 -170.39436102 137.44427009 -173.140625 139.02734375 C-175.07934678 140.04150704 -176.86577037 140.55143404 -179 141 C-179.06058594 140.23816406 -179.12117188 139.47632813 -179.18359375 138.69140625 C-179.30927734 137.14259766 -179.30927734 137.14259766 -179.4375 135.5625 C-179.51871094 134.55316406 -179.59992188 133.54382813 -179.68359375 132.50390625 C-179.90342382 130.06949175 -180.18681559 127.64031964 -180.51953125 125.21875 C-181.29429755 118.30550665 -181.22359046 111.33998522 -181.24023438 104.3918457 C-181.24988161 101.96725367 -181.28095358 99.54353263 -181.3125 97.11914062 C-181.44421801 77.73782947 -178.5534485 57.8721624 -165 43 C-156.79454724 35.87306145 -147.6230006 33.64314617 -137 33 C-137.15855469 32.44570313 -137.31710938 31.89140625 -137.48046875 31.3203125 C-139.58339587 21.92829215 -137.47817824 13.99985747 -132.75 5.84375 C-126.73470507 -3.04248115 -117.28890838 -8.48773894 -107 -11 C-72.23844684 -17.26932502 -33.25338536 -10.59845412 0 0 Z " fill="#010000" transform="translate(305,20)"/>
<path d="M0 0 C8.82064187 3.06945413 16.45913407 9.81485054 22.29296875 16.96875 C24.24110186 19.28689467 26.33922265 21.37916979 28.5 23.5 C31.88927093 26.84919509 35.08398787 30.28876365 38.1875 33.90234375 C40.25850341 36.29917312 42.37603218 38.65000182 44.5 41 C47.75855851 44.61083511 50.98404913 48.24562493 54.1640625 51.92578125 C55.54814934 53.48950489 56.96560108 55.02378877 58.3984375 56.54296875 C59.21570313 57.41566406 60.03296875 58.28835938 60.875 59.1875 C61.63554687 59.98542969 62.39609375 60.78335938 63.1796875 61.60546875 C65.14802235 64.19471609 65.48204317 65.84805915 66 69 C62.35378539 70.97856902 58.70588374 72.95398726 55.05639648 74.92651367 C53.81536961 75.59785166 52.5748054 76.27004566 51.3347168 76.94311523 C49.55118092 77.91095309 47.7659986 78.87569059 45.98046875 79.83984375 C44.90692139 80.42113037 43.83337402 81.00241699 42.72729492 81.60131836 C40 83 40 83 37 84 C37 84.66 37 85.32 37 86 C38.04752441 86.38502686 38.04752441 86.38502686 39.11621094 86.77783203 C44.16821549 88.91890338 48.75835391 91.91066123 53.43066406 94.76708984 C55.25164854 95.8760039 57.08252399 96.96722439 58.9140625 98.05859375 C60.07356799 98.76455635 61.23244508 99.47155231 62.390625 100.1796875 C63.44282227 100.81632324 64.49501953 101.45295898 65.57910156 102.10888672 C68 104 68 104 68.97998047 106.02148438 C69.0053796 108.5316618 68.41294303 109.46497798 66.9296875 111.4765625 C66.45217041 112.137771 65.97465332 112.79897949 65.48266602 113.48022461 C64.95213623 114.18800049 64.42160645 114.89577637 63.875 115.625 C63.33093506 116.37209229 62.78687012 117.11918457 62.22631836 117.88891602 C61.07346131 119.47052837 59.91535961 121.04832917 58.75244141 122.62255859 C56.53149764 125.63559153 54.34701528 128.67399448 52.16235352 131.71337891 C48.86268294 136.30059072 45.54210164 140.8727145 42.22558594 145.44775391 C40.46200162 147.88119338 38.69973343 150.31558216 36.9375 152.75 C36.13324585 153.85782837 36.13324585 153.85782837 35.31274414 154.98803711 C34.80606201 155.68807861 34.29937988 156.38812012 33.77734375 157.109375 C33.33640381 157.71749023 32.89546387 158.32560547 32.44116211 158.95214844 C30.83532009 161.10094839 30.83532009 161.10094839 29.53442383 164.20654297 C26.62397416 167.41445792 26.08259362 167.44156322 21.95605469 167.68115234 C19.86108791 167.68020363 17.7659701 167.64637244 15.671875 167.5859375 C14.56773254 167.57744781 13.46359009 167.56895813 12.32598877 167.56021118 C8.7996663 167.52662627 5.27563116 167.45133107 1.75 167.375 C-0.64059198 167.34490727 -3.0312198 167.31753028 -5.421875 167.29296875 C-11.28203031 167.22681826 -17.14085177 167.12641725 -23 167 C-22.47755674 160.94062659 -21.75605468 155.03616151 -20.4609375 149.09375 C-20.30332947 148.35531357 -20.14572144 147.61687714 -19.9833374 146.85606384 C-19.45509887 144.40225716 -18.91606253 141.95100915 -18.375 139.5 C-18.1875824 138.64238068 -18.00016479 137.78476135 -17.80706787 136.90115356 C-13.46361739 117.11564931 -8.33386181 97.52957853 -3.14208984 77.953125 C3.29421903 54.65660051 3.29421903 54.65660051 5.4375 30.6875 C5.43157837 29.28612793 5.43157837 29.28612793 5.42553711 27.85644531 C5.28265162 21.00511594 4.25463563 15.11714648 1 9 C-0.4783226 6.04335481 -0.06032783 3.25770263 0 0 Z " fill="#04549B" transform="translate(303,337)"/>
<path d="M0 0 C0.46753223 5.4935037 -0.58542452 8.9591183 -3.02734375 13.88671875 C-8.23413105 25.19945741 -5.35659931 40.95687793 -2.8984375 52.6171875 C-2.67742371 53.69162613 -2.45640991 54.76606476 -2.22869873 55.87306213 C0.0888294 66.8708419 2.93457915 77.71918731 5.84832764 88.57131958 C10.77910572 106.97921287 15.40856241 125.42186449 19.375 144.0625 C19.66135315 145.39714798 19.66135315 145.39714798 19.95349121 146.75875854 C20.48433771 149.24521911 21.00634291 151.73330305 21.5234375 154.22265625 C21.67583893 154.94405792 21.82824036 155.66545959 21.98526001 156.40872192 C22.71559501 160.00960609 23.06076488 163.33463003 23 167 C16.12022524 167.48577644 9.24490509 167.81592922 2.35180664 168.04370117 C0.01386489 168.13868963 -2.32296429 168.26795968 -4.65698242 168.43334961 C-23.52562561 169.73588685 -23.52562561 169.73588685 -29.31057739 165.18054199 C-33.32976202 160.69310343 -36.12918023 155.67215043 -38.78878784 150.29685974 C-40.53419994 146.98697984 -42.69953458 144.27226495 -45.0625 141.375 C-50.00961167 135.06622404 -54.62839204 128.55364208 -59.2109375 121.9765625 C-60.89095821 119.56560144 -62.59793816 117.19546526 -64.3515625 114.8359375 C-64.99867188 113.96195312 -65.64578125 113.08796875 -66.3125 112.1875 C-67.14201172 111.09501953 -67.14201172 111.09501953 -67.98828125 109.98046875 C-69 108 -69 108 -68.94775391 106.13085938 C-67.50679509 102.89111477 -64.80404226 101.63789981 -61.84765625 99.92578125 C-61.23232529 99.55647995 -60.61699432 99.18717865 -59.98301697 98.8066864 C-58.01627318 97.63014842 -56.03971263 96.47134026 -54.0625 95.3125 C-52.73435422 94.52130898 -51.40687152 93.7290037 -50.08007812 92.93554688 C-40.78441487 87.39220743 -40.78441487 87.39220743 -38 86 C-38 85.34 -38 84.68 -38 84 C-38.52843506 83.72325439 -39.05687012 83.44650879 -39.60131836 83.16137695 C-42.0473116 81.87955805 -44.49240784 80.59603684 -46.9375 79.3125 C-47.76830078 78.87744141 -48.59910156 78.44238281 -49.45507812 77.99414062 C-55.01469787 75.0737178 -60.52442654 72.0750953 -66 69 C-65.33393451 65.14869452 -64.80181379 63.33213219 -61.875 60.6875 C-58.6666764 57.66176392 -55.76205019 54.50556043 -52.8828125 51.16796875 C-50.7842468 48.75157049 -48.645603 46.37470976 -46.5 44 C-43.81016569 41.01937279 -41.13689636 38.02754767 -38.5 35 C-32.43748872 28.05541434 -26.33930086 21.18699067 -19.75390625 14.73046875 C-18.36155168 13.35672025 -17.01568879 11.93587977 -15.6875 10.5 C-4.4 0 -4.4 0 0 0 Z " fill="#04549B" transform="translate(209,337)"/>
<path d="M0 0 C2.64681203 0.97443916 4.82606233 2.30116974 7.20947266 3.81201172 C8.69350586 4.74678345 8.69350586 4.74678345 10.20751953 5.70043945 C11.25488281 6.36760986 12.30224609 7.03478027 13.38134766 7.72216797 C15.54279482 9.086769 17.70425319 10.45135227 19.86572266 11.81591797 C20.92726563 12.48880859 21.98880859 13.16169922 23.08251953 13.85498047 C27.25426855 16.4953956 31.44173085 19.11023725 35.63134766 21.72216797 C36.91270162 22.52278285 38.19396382 23.32354464 39.47509766 24.12451172 C40.35166016 24.67236328 41.22822266 25.22021484 42.13134766 25.78466797 C41.62906014 32.47195487 40.58701075 38.74824635 38.87353516 45.22607422 C38.4112852 47.03027078 37.94904605 48.83447011 37.48681641 50.63867188 C37.24495605 51.57108704 37.0030957 52.5035022 36.75390625 53.46417236 C32.48493477 69.92766582 28.52524151 86.40056861 25.32617188 103.10717773 C25.07625488 104.36457764 24.82633789 105.62197754 24.56884766 106.91748047 C24.36130859 108.00947754 24.15376953 109.10147461 23.93994141 110.2265625 C23.13134766 112.78466797 23.13134766 112.78466797 20.13134766 114.78466797 C18.19628906 115.03863525 18.19628906 115.03863525 15.98291016 115.04345703 C15.15194824 115.04976135 14.32098633 115.05606567 13.46484375 115.06256104 C12.57104004 115.05851257 11.67723633 115.05446411 10.75634766 115.05029297 C9.83547363 115.05220642 8.91459961 115.05411987 7.96582031 115.05609131 C6.01904019 115.05745217 4.07225096 115.0537626 2.12548828 115.04541016 C-0.85714063 115.03470927 -3.83916721 115.04530879 -6.82177734 115.05810547 C-8.71240368 115.05678386 -10.60302963 115.05422143 -12.49365234 115.05029297 C-13.38745605 115.05434143 -14.28125977 115.05838989 -15.20214844 115.06256104 C-16.44859131 115.05310455 -16.44859131 115.05310455 -17.72021484 115.04345703 C-18.8158374 115.04107025 -18.8158374 115.04107025 -19.93359375 115.03863525 C-21.86865234 114.78466797 -21.86865234 114.78466797 -24.86865234 112.78466797 C-25.59318542 110.85456848 -25.59318542 110.85456848 -26.09204102 108.4597168 C-26.28648804 107.55786148 -26.48093506 106.65600616 -26.68127441 105.7268219 C-26.88103882 104.74173141 -27.08080322 103.75664093 -27.28662109 102.74169922 C-27.50515747 101.71749374 -27.72369385 100.69328827 -27.94885254 99.63804626 C-28.4178561 97.43656901 -28.88160686 95.23396751 -29.34066772 93.03039551 C-30.53301939 87.30893837 -31.76191548 81.59541299 -32.99365234 75.88232422 C-33.23669601 74.75241058 -33.47973969 73.62249695 -33.73014832 72.45834351 C-36.03845831 61.81989389 -38.69885598 51.2952621 -41.58227539 40.79956055 C-42.03920776 39.11382935 -42.03920776 39.11382935 -42.50537109 37.39404297 C-42.77051514 36.4449707 -43.03565918 35.49589844 -43.30883789 34.51806641 C-43.94846952 31.39494574 -44.31489041 28.95696125 -43.86865234 25.78466797 C-41.73583984 23.79345703 -41.73583984 23.79345703 -38.74365234 22.05029297 C-37.65133301 21.39794678 -36.55901367 20.74560059 -35.43359375 20.07348633 C-34.24562006 19.39328586 -33.05729968 18.71369057 -31.86865234 18.03466797 C-30.67258769 17.33177775 -29.47776361 16.62677231 -28.28417969 15.91967773 C-26.49687926 14.86196874 -24.70854377 13.80650576 -22.91464233 12.76002502 C-19.46233285 10.74513167 -16.06870814 8.66671376 -12.72021484 6.48388672 C-11.99189453 6.00983398 -11.26357422 5.53578125 -10.51318359 5.04736328 C-9.20068061 4.18611253 -7.89306197 3.31735526 -6.59130859 2.43994141 C-2.38813746 -0.27519431 -2.38813746 -0.27519431 0 0 Z " fill="#D1D8DD" transform="translate(256.86865234375,390.21533203125)"/>
<path d="M0 0 C1.27447762 2.48523136 2.44621484 4.99085943 3.59375 7.5390625 C9.6923607 20.80114644 17.28035075 30.0367482 31 36 C42.62687192 40.26318637 55.78201029 38.83534039 67 34 C78.50117028 27.77162143 85.83916829 18.375274 90.921875 6.515625 C91.87304398 4.29623071 92.89652944 2.14675181 94 0 C94.81752303 1.58074564 95.62881997 3.16471223 96.4375 4.75 C96.88996094 5.63171875 97.34242188 6.5134375 97.80859375 7.421875 C104.99780871 22.97886476 98.93256344 44.32338494 95 60 C94.7922998 60.82902832 94.58459961 61.65805664 94.37060547 62.51220703 C93.30858446 66.69298604 92.1895014 70.85335826 91 75 C90.67 74.34 90.34 73.68 90 73 C89.33484375 72.74089844 88.6696875 72.48179687 87.984375 72.21484375 C83.75114337 70.49163035 80.08786458 68.02659673 76.25 65.5625 C75.42032715 65.03696533 74.5906543 64.51143066 73.73583984 63.9699707 C69.50011152 61.278711 65.30167375 58.54355491 61.1484375 55.7265625 C60.0052002 54.95977173 60.0052002 54.95977173 58.83886719 54.17749023 C57.39070517 53.20283951 55.95079238 52.21578931 54.52050781 51.21508789 C50.83674198 48.71442972 50.83674198 48.71442972 46.5625 47.875 C42.57298031 49.62649645 39.01520608 51.9305221 35.375 54.3125 C33.68623858 55.39719872 31.99743519 56.48183212 30.30859375 57.56640625 C29.43960449 58.12859863 28.57061523 58.69079102 27.67529297 59.27001953 C23.2747229 62.1156519 18.8583773 64.93605762 14.4375 67.75 C13.21522705 68.5375769 13.21522705 68.5375769 11.96826172 69.34106445 C11.21432129 69.82148193 10.46038086 70.30189941 9.68359375 70.796875 C8.68670532 71.43641113 8.68670532 71.43641113 7.66967773 72.08886719 C6 73 6 73 4 73 C3.505 73.99 3.505 73.99 3 75 C2.03331284 71.23370645 1.07338748 67.46575424 0.11914062 63.69628906 C-0.36249207 61.79926544 -0.84914843 59.90351951 -1.3359375 58.0078125 C-4.15851922 46.83509317 -6.39455505 35.99453593 -6.375 24.4375 C-6.37483887 23.5314502 -6.37467773 22.62540039 -6.37451172 21.69189453 C-6.23430061 13.47257203 -4.58692872 6.88039308 0 0 Z " fill="#B7C0C5" transform="translate(209,343)"/>
<path d="M0 0 C0.87914062 -0.00386719 1.75828125 -0.00773437 2.6640625 -0.01171875 C3.57929688 -0.00011719 4.49453125 0.01148438 5.4375 0.0234375 C6.81035156 0.00603516 6.81035156 0.00603516 8.2109375 -0.01171875 C9.09007812 -0.00785156 9.96921875 -0.00398438 10.875 0 C12.07962891 0.00507568 12.07962891 0.00507568 13.30859375 0.01025391 C16.04431109 0.5090831 16.73397384 1.21272863 18.4375 3.3984375 C19.10197449 6.02789307 19.10197449 6.02789307 19.51245117 9.22753906 C19.67239059 10.4259845 19.83233002 11.62442993 19.99711609 12.85919189 C20.15662247 14.15604919 20.31612885 15.45290649 20.48046875 16.7890625 C20.65455226 18.1357689 20.82964172 19.48234562 21.00569153 20.82879639 C21.37221644 23.65234431 21.73030697 26.47678654 22.08178711 29.30224609 C22.5306307 32.90931825 22.99434925 36.51426525 23.46372509 40.11871719 C23.82539754 42.90131272 24.18201855 45.6845357 24.53685951 48.46800995 C24.7882384 50.43946444 25.04146329 52.41068328 25.29472351 54.38189697 C25.44520645 55.59295105 25.59568939 56.80400513 25.75073242 58.05175781 C25.88380295 59.11082336 26.01687347 60.16988892 26.15397644 61.26104736 C26.45822545 64.62777933 26.4375 68.01798611 26.4375 71.3984375 C12.5775 71.3984375 -1.2825 71.3984375 -15.5625 71.3984375 C-14.93540383 61.99199496 -14.24343837 52.76847914 -13.0390625 43.4453125 C-12.89222015 42.29726135 -12.74537781 41.14921021 -12.59408569 39.96636963 C-12.28569074 37.57311055 -11.97469136 35.18018569 -11.66113281 32.78759766 C-11.18333149 29.11640872 -10.72439909 25.44314041 -10.265625 21.76953125 C-9.96208948 19.43214178 -9.65744302 17.09489625 -9.3515625 14.7578125 C-9.21706696 13.66104187 -9.08257141 12.56427124 -8.94400024 11.43426514 C-8.73896378 9.91557831 -8.73896378 9.91557831 -8.52978516 8.36621094 C-8.41510895 7.47657654 -8.30043274 6.58694214 -8.18228149 5.67034912 C-6.93215327 1.08779727 -4.51621624 0.019029 0 0 Z " fill="#FE500C" transform="translate(250.5625,433.6015625)"/>
<path d="M0 0 C26.4 0 52.8 0 80 0 C80 9.02189781 80 9.02189781 77.1875 14.25 C76.66542969 15.24515625 76.14335937 16.2403125 75.60546875 17.265625 C74.20094677 19.65775489 72.72120284 21.82911353 71 24 C68.28369914 23.52065279 65.81177814 22.9313637 63.21484375 21.984375 C55.44573772 19.60549928 47.1559786 20.03328363 39.93359375 23.796875 C35.13762594 26.78103275 31.6336897 29.87893669 29 35 C17.53565184 31.9746859 8.77659684 24.88943523 2.609375 14.703125 C-0.09514983 9.17979965 0 6.80013832 0 0 Z " fill="#663430" transform="translate(216,261)"/>
<path d="M0 0 C0.54785156 0.17015625 1.09570312 0.3403125 1.66015625 0.515625 C18.53957675 5.77736951 18.53957675 5.77736951 36 8 C36.88300781 8.0515625 37.76601562 8.103125 38.67578125 8.15625 C52.59176715 8.61819144 66.22267521 5.74866418 79.19140625 0.890625 C82 0 82 0 84 1 C76.7384346 11.70724938 67.58796637 19.77816932 54.9375 23.3125 C39.45861845 26.17691936 25.09994845 23.80957232 12 15 C6.86639855 10.67941236 2.43326871 6.32649865 0 0 Z " fill="#F8A771" transform="translate(214,315)"/>
<path d="M0 0 C0.7027002 -0.00191345 1.40540039 -0.0038269 2.12939453 -0.00579834 C3.61556354 -0.00715975 5.10174445 -0.00346632 6.58789062 0.00488281 C8.86615646 0.01558346 11.14363377 0.00498661 13.421875 -0.0078125 C14.86458508 -0.0064909 16.30729466 -0.00392849 17.75 0 C19.06742187 0.00225586 20.38484375 0.00451172 21.7421875 0.00683594 C24.875 0.265625 24.875 0.265625 26.875 2.265625 C27.30565307 9.60108227 24.76194113 16.63768932 21.875 23.265625 C20.875 24.265625 20.875 24.265625 18.55834961 24.37915039 C17.55811768 24.37391357 16.55788574 24.36867676 15.52734375 24.36328125 C14.44775391 24.36005859 13.36816406 24.35683594 12.25585938 24.35351562 C11.11955078 24.34513672 9.98324219 24.33675781 8.8125 24.328125 C7.67232422 24.32361328 6.53214844 24.31910156 5.35742188 24.31445312 C2.52989649 24.30262247 -0.2975264 24.2861391 -3.125 24.265625 C-3.76768347 22.8433763 -4.40781033 21.41997217 -5.046875 19.99609375 C-5.58199707 18.80729614 -5.58199707 18.80729614 -6.12792969 17.59448242 C-8.29850009 12.52468049 -9.63983489 7.80010008 -9.125 2.265625 C-6.22058341 -0.63879159 -4.05742155 0.00694764 0 0 Z " fill="#FE4F0B" transform="translate(247.125,406.734375)"/>
<path d="M0 0 C3.17852316 1.64448689 5.37801764 3.75603527 7 7 C7.40386672 11.82310068 7.56326649 16.40960051 5.9375 21 C2.65073217 24.3927926 -0.62992698 25.89854139 -5.28125 26.09765625 C-10.25670678 25.7576667 -13.56862435 24.84729997 -17 21 C-19.33537146 16.32925708 -19.55219243 11.94147338 -18 7 C-13.465232 -0.34125029 -8.17346429 -1.05909678 0 0 Z " fill="#0A0705" transform="translate(219,178)"/>
<path d="M0 0 C3.78171013 2.03630545 7.09528802 4.08475871 9 8 C9.58052227 12.28941457 9.47224019 15.85668166 7.8125 19.875 C5.25457509 22.87394645 3.06894964 24.69364437 -0.92578125 25.28515625 C-5.42534789 25.48005273 -8.44062534 24.96614555 -12 22 C-14.39432714 19.35363842 -15.89537885 17.41238553 -16.1640625 13.78515625 C-15.81348598 8.76857323 -14.76021775 5.54534816 -11 2 C-7.51335549 -0.52481154 -4.20248882 -0.43474022 0 0 Z " fill="#030202" transform="translate(296,178)"/>
<path d="M0 0 C5.76417541 0.14973575 11.33317669 1.39322129 16.95703125 2.58203125 C18.5822168 2.90204102 18.5822168 2.90204102 20.24023438 3.22851562 C21.79581055 3.55239258 21.79581055 3.55239258 23.3828125 3.8828125 C24.32165283 4.07657471 25.26049316 4.27033691 26.2277832 4.4699707 C28.84531966 5.33596039 29.99955611 6.07768314 31.64453125 8.26953125 C32.17232601 11.81329606 32.03492913 13.60755223 30.20703125 16.70703125 C24.42697595 20.23145521 14.77452132 16.68210465 8.39453125 15.45703125 C7.523125 15.30427734 6.65171875 15.15152344 5.75390625 14.99414062 C0.81946371 14.04260559 -2.85385787 13.14812715 -6.35546875 9.26953125 C-6.26134449 3.81032431 -5.96016024 0.4787556 0 0 Z " fill="#050303" transform="translate(288.35546875,154.73046875)"/>
<path d="M0 0 C2.44703913 2.06468927 2.87828805 3.39144027 3.5 6.5 C3 9 3 9 1.07421875 11.015625 C-3.03548686 13.66839559 -6.92116416 14.38532643 -11.6875 15.25 C-12.53505859 15.42273438 -13.38261719 15.59546875 -14.25585938 15.7734375 C-20.00036289 16.87428532 -26.17614482 17.97478245 -32 17 C-33.76049805 15.66894531 -33.76049805 15.66894531 -35 14 C-35.64239295 8.86085644 -35.64239295 8.86085644 -33.80541992 6.39916992 C-31.49644206 4.60975111 -29.59550156 4.20296758 -26.73828125 3.61328125 C-25.18270508 3.2894043 -25.18270508 3.2894043 -23.59570312 2.95898438 C-22.51224609 2.74564453 -21.42878906 2.53230469 -20.3125 2.3125 C-19.24837891 2.08755859 -18.18425781 1.86261719 -17.08789062 1.63085938 C-11.30208456 0.45511497 -5.90524081 -0.43997138 0 0 Z " fill="#040302" transform="translate(221,155)"/>
<path d="M0 0 C-7.41052783 8.10526481 -16.14114578 12.47159293 -27.1953125 13.21484375 C-31.95630254 13.26748369 -36.34592912 13.04928143 -41 12 C-39.72092351 6.03097639 -36.8596687 3.32061815 -32 0 C-21.7638662 -6.46492661 -10.48122955 -5.29976393 0 0 Z " fill="#EA4F61" transform="translate(286,285)"/>
</svg>
