<svg xmlns="http://www.w3.org/2000/svg" xmlns:xlink="http://www.w3.org/1999/xlink" version="1.1" width="256" height="256" viewBox="0 0 256 256" xml:space="preserve">
<g style="stroke: none; stroke-width: 0; stroke-dasharray: none; stroke-linecap: butt; stroke-linejoin: miter; stroke-miterlimit: 10; fill: none; fill-rule: nonzero; opacity: 1;" transform="translate(1.4065934065934016 1.4065934065934016) scale(2.81 2.81)">
	<path d="M 47.474 16.821 c -15.883 0 -28.758 12.875 -28.758 28.758 c 0 15.883 12.875 28.758 28.758 28.758 c 15.883 0 28.758 -12.875 28.758 -28.758 H 47.474 V 16.821 z" style="stroke: none; stroke-width: 1; stroke-dasharray: none; stroke-linecap: butt; stroke-linejoin: miter; stroke-miterlimit: 10; fill: rgb(253,182,47); fill-rule: nonzero; opacity: 1;" transform=" matrix(1 0 0 1 0 0) " stroke-linecap="round"/>
	<path d="M 56.38 8.045 v 28.758 h 28.758 C 85.137 20.92 72.262 8.045 56.38 8.045 z" style="stroke: none; stroke-width: 1; stroke-dasharray: none; stroke-linecap: butt; stroke-linejoin: miter; stroke-miterlimit: 10; fill: rgb(148,194,60); fill-rule: nonzero; opacity: 1;" transform=" matrix(1 0 0 1 0 0) " stroke-linecap="round"/>
	<rect x="1" y="55.06" rx="0" ry="0" width="13.53" height="26.95" style="stroke: none; stroke-width: 1; stroke-dasharray: none; stroke-linecap: butt; stroke-linejoin: miter; stroke-miterlimit: 10; fill: rgb(67,152,209); fill-rule: nonzero; opacity: 1;" transform=" matrix(1 0 0 1 0 0) "/>
	<path d="M 88.812 62.655 c -0.63 -2.057 -2.689 -3.321 -4.807 -2.944 c -6.373 1.135 -14.088 3.499 -21.357 5.203 l -0.001 -0.001 l 0.001 0 c -0.371 -4.127 -3.759 -7.33 -7.9 -7.47 l -1.88 -0.063 c -6.139 0 -12.817 -4.463 -18.5 -4.463 c -4.996 0 -9.818 1.085 -15.128 5.724 c -0.672 0.587 -1.535 0.919 -2.427 0.912 l -1.823 -0.083 v 17.597 h 5.352 c 1.687 0 3.369 0.185 5.015 0.552 l 14.402 3.211 c 1.3 0.29 2.63 0.427 3.962 0.407 l 7.97 -0.116 c 2.234 -0.032 4.439 -0.503 6.492 -1.386 l 28.241 -11.927 C 88.419 66.954 89.448 64.732 88.812 62.655 z" style="stroke: none; stroke-width: 1; stroke-dasharray: none; stroke-linecap: butt; stroke-linejoin: miter; stroke-miterlimit: 10; fill: rgb(254,201,163); fill-rule: nonzero; opacity: 1;" transform=" matrix(1 0 0 1 0 0) " stroke-linecap="round"/>
	<path d="M 62.647 65.914 c -0.512 0 -0.948 -0.391 -0.995 -0.91 c -0.325 -3.617 -3.308 -6.437 -6.938 -6.56 l -1.879 -0.062 c -0.001 0 -0.002 0 -0.002 0 c -3.268 0.001 -6.64 -1.195 -9.902 -2.353 c -3.059 -1.085 -5.949 -2.109 -8.563 -2.109 c -4.055 0 -8.946 0.65 -14.47 5.477 c -0.865 0.756 -2.009 1.157 -3.091 1.16 l -2.324 -0.105 c -0.551 -0.025 -0.979 -0.493 -0.953 -1.045 c 0.025 -0.552 0.499 -0.979 1.045 -0.953 l 2.285 0.104 c 0.004 0 0.008 0 0.012 0 c 0.597 0 1.218 -0.236 1.712 -0.667 c 6.022 -5.262 11.359 -5.971 15.785 -5.971 c 2.959 0 6.148 1.131 9.232 2.225 c 3.103 1.101 6.313 2.238 9.269 2.238 l 1.913 0.063 c 4.638 0.156 8.447 3.759 8.863 8.379 c 0.05 0.551 -0.356 1.036 -0.906 1.086 C 62.708 65.913 62.678 65.914 62.647 65.914 z" style="stroke: none; stroke-width: 1; stroke-dasharray: none; stroke-linecap: butt; stroke-linejoin: miter; stroke-miterlimit: 10; fill: rgb(0,0,0); fill-rule: nonzero; opacity: 1;" transform=" matrix(1 0 0 1 0 0) " stroke-linecap="round"/>
	<path d="M 43.472 82.242 c -1.32 0 -2.641 -0.146 -3.931 -0.434 L 25.14 78.597 c -1.573 -0.351 -3.187 -0.528 -4.798 -0.528 h -5.814 c -0.552 0 -1 -0.447 -1 -1 s 0.448 -1 1 -1 h 5.814 c 1.757 0 3.518 0.194 5.233 0.577 l 14.401 3.211 c 1.222 0.271 2.476 0.396 3.729 0.383 l 7.97 -0.115 c 2.113 -0.031 4.17 -0.471 6.112 -1.305 l 28.247 -11.93 c 1.523 -0.655 2.309 -2.351 1.821 -3.942 c -0.48 -1.572 -2.058 -2.54 -3.676 -2.252 c -3.898 0.694 -8.248 1.838 -12.852 3.049 c -12.495 3.288 -25.417 6.684 -31.216 1.367 c -0.407 -0.374 -0.435 -1.006 -0.061 -1.413 c 0.373 -0.406 1.005 -0.435 1.413 -0.062 c 4.994 4.581 17.936 1.177 29.356 -1.826 c 4.644 -1.222 9.032 -2.376 13.012 -3.084 c 2.605 -0.462 5.162 1.099 5.937 3.636 c 0.787 2.568 -0.481 5.306 -2.95 6.367 L 58.571 80.66 c -2.178 0.936 -4.489 1.43 -6.866 1.465 l -7.97 0.115 C 43.647 82.241 43.56 82.242 43.472 82.242 z" style="stroke: none; stroke-width: 1; stroke-dasharray: none; stroke-linecap: butt; stroke-linejoin: miter; stroke-miterlimit: 10; fill: rgb(0,0,0); fill-rule: nonzero; opacity: 1;" transform=" matrix(1 0 0 1 0 0) " stroke-linecap="round"/>
	<path d="M 14.528 83.01 H 1 c -0.552 0 -1 -0.447 -1 -1 V 55.059 c 0 -0.553 0.448 -1 1 -1 h 13.527 c 0.552 0 1 0.447 1 1 V 82.01 C 15.528 82.563 15.08 83.01 14.528 83.01 z M 2 81.01 h 11.527 V 56.059 H 2 V 81.01 z" style="stroke: none; stroke-width: 1; stroke-dasharray: none; stroke-linecap: butt; stroke-linejoin: miter; stroke-miterlimit: 10; fill: rgb(0,0,0); fill-rule: nonzero; opacity: 1;" transform=" matrix(1 0 0 1 0 0) " stroke-linecap="round"/>
	<path d="M 74.897 56.061 c -0.107 0 -0.217 -0.018 -0.324 -0.054 c -0.522 -0.18 -0.801 -0.748 -0.622 -1.27 c 0.889 -2.591 1.387 -5.293 1.483 -8.048 h -27.85 c -0.553 0 -1 -0.448 -1 -1 v -27.85 c -14.905 0.529 -26.867 12.819 -26.867 27.85 c 0 1.74 0.161 3.48 0.479 5.173 c 0.102 0.543 -0.256 1.065 -0.798 1.167 c -0.544 0.103 -1.065 -0.256 -1.167 -0.798 c -0.34 -1.814 -0.513 -3.68 -0.513 -5.542 c 0 -16.469 13.398 -29.868 29.867 -29.868 c 0.553 0 1 0.448 1 1 v 27.868 h 27.868 c 0.553 0 1 0.448 1 1 c 0 3.322 -0.541 6.584 -1.608 9.697 C 75.701 55.801 75.312 56.061 74.897 56.061 z" style="stroke: none; stroke-width: 1; stroke-dasharray: none; stroke-linecap: butt; stroke-linejoin: miter; stroke-miterlimit: 10; fill: rgb(0,0,0); fill-rule: nonzero; opacity: 1;" transform=" matrix(1 0 0 1 0 0) " stroke-linecap="round"/>
	<path d="M 85.284 37.858 H 56.416 c -0.553 0 -1 -0.448 -1 -1 V 7.99 c 0 -0.552 0.447 -1 1 -1 c 3.469 0 6.866 0.589 10.099 1.751 c 0.521 0.187 0.79 0.759 0.604 1.279 c -0.187 0.52 -0.762 0.79 -1.279 0.603 c -2.705 -0.972 -5.534 -1.514 -8.424 -1.616 v 26.85 h 26.85 c -0.109 -3.111 -0.729 -6.147 -1.845 -9.037 c -0.199 -0.515 0.057 -1.094 0.572 -1.293 c 0.513 -0.2 1.094 0.057 1.293 0.572 c 1.325 3.431 1.997 7.05 1.997 10.758 C 86.284 37.41 85.836 37.858 85.284 37.858 z" style="stroke: none; stroke-width: 1; stroke-dasharray: none; stroke-linecap: butt; stroke-linejoin: miter; stroke-miterlimit: 10; fill: rgb(0,0,0); fill-rule: nonzero; opacity: 1;" transform=" matrix(1 0 0 1 0 0) " stroke-linecap="round"/>
	<path d="M 72.844 15.833 c -0.79 0 -1.58 -0.301 -2.182 -0.902 c -0.583 -0.583 -0.904 -1.358 -0.904 -2.182 c 0 -0.825 0.321 -1.6 0.904 -2.183 c 1.166 -1.165 3.198 -1.165 4.364 0 c 1.203 1.203 1.203 3.161 0 4.365 v 0 C 74.424 15.533 73.634 15.833 72.844 15.833 z M 74.32 14.224 h 0.01 H 74.32 z M 72.844 11.662 c -0.29 0 -0.562 0.113 -0.768 0.318 c -0.206 0.206 -0.318 0.478 -0.318 0.768 s 0.113 0.562 0.318 0.768 c 0.424 0.424 1.112 0.423 1.536 0 c 0.423 -0.424 0.423 -1.113 0 -1.536 C 73.408 11.776 73.134 11.662 72.844 11.662 z" style="stroke: none; stroke-width: 1; stroke-dasharray: none; stroke-linecap: butt; stroke-linejoin: miter; stroke-miterlimit: 10; fill: rgb(0,0,0); fill-rule: nonzero; opacity: 1;" transform=" matrix(1 0 0 1 0 0) " stroke-linecap="round"/>
	<path d="M 80.623 23.613 c -0.824 0 -1.599 -0.321 -2.182 -0.904 c -0.583 -0.583 -0.904 -1.357 -0.904 -2.182 c 0 -0.824 0.321 -1.6 0.904 -2.183 c 1.203 -1.202 3.159 -1.202 4.364 0 c 1.203 1.204 1.203 3.162 0 4.365 c 0 0 0 0 0 0 C 82.222 23.292 81.447 23.613 80.623 23.613 z M 82.098 22.002 h 0.01 H 82.098 z M 80.623 19.441 c -0.277 0 -0.556 0.106 -0.768 0.317 c -0.205 0.206 -0.318 0.478 -0.318 0.768 c 0 0.29 0.112 0.562 0.318 0.768 c 0.41 0.411 1.126 0.411 1.536 0 c 0.423 -0.423 0.423 -1.113 0 -1.536 C 81.179 19.547 80.901 19.441 80.623 19.441 z" style="stroke: none; stroke-width: 1; stroke-dasharray: none; stroke-linecap: butt; stroke-linejoin: miter; stroke-miterlimit: 10; fill: rgb(0,0,0); fill-rule: nonzero; opacity: 1;" transform=" matrix(1 0 0 1 0 0) " stroke-linecap="round"/>
	<path d="M 71.988 22.383 c -0.256 0 -0.512 -0.098 -0.707 -0.293 c -0.391 -0.391 -0.391 -1.023 0 -1.414 l 10.023 -10.023 c 0.391 -0.391 1.023 -0.391 1.414 0 c 0.391 0.391 0.391 1.023 0 1.414 L 72.695 22.09 C 72.5 22.285 72.244 22.383 71.988 22.383 z" style="stroke: none; stroke-width: 1; stroke-dasharray: none; stroke-linecap: butt; stroke-linejoin: miter; stroke-miterlimit: 10; fill: rgb(0,0,0); fill-rule: nonzero; opacity: 1;" transform=" matrix(1 0 0 1 0 0) " stroke-linecap="round"/>
</g>
</svg>