<?xml version="1.0" encoding="UTF-8"?>
<svg version="1.1" xmlns="http://www.w3.org/2000/svg" width="512" height="512">
<path d="M0 0 C0.82419434 0.20399414 1.64838867 0.40798828 2.49755859 0.61816406 C14.5205156 3.6387424 25.87695934 7.52799531 37 13 C37.63099609 13.30663574 38.26199219 13.61327148 38.91210938 13.92919922 C51.79086973 20.26027178 63.28902933 28.12659236 73.78125 37.9375 C75.75737093 39.77445749 77.78954621 41.47811165 79.875 43.1875 C107.96954573 67.82686975 125.52095723 107.28757383 129 144 C129.15077345 147.44156968 129.17397263 150.88015682 129.18945312 154.32470703 C129.19774643 155.32751205 129.20603973 156.33031708 129.21458435 157.36351013 C129.23190842 159.53015745 129.24709566 161.69682271 129.26036072 163.86349869 C129.28153509 167.30413708 129.30854877 170.74468708 129.33703613 174.18527222 C129.39654204 181.49848002 129.44873231 188.81173044 129.5 196.125 C129.55949228 204.58474586 129.62206233 213.04444861 129.69187927 221.50411606 C129.71818359 224.87277559 129.73916381 228.24144016 129.7598877 231.61013794 C129.97329622 260.69344576 132.9025423 286.67083968 153.984375 308.7109375 C158.45831561 313.79180804 159.83778656 317.69464422 159.671875 324.4140625 C156.72017863 340.16788384 144.12181599 353.34159301 133 364 C133.47308594 364.42667969 133.94617188 364.85335938 134.43359375 365.29296875 C148.69931669 378.78005574 158.77636928 397.10844709 159.36308002 416.96452236 C159.43596718 421.52618144 159.44282297 426.08629487 159.43359375 430.6484375 C159.4381626 432.63473691 159.44347025 434.62103474 159.44947815 436.60733032 C159.45836523 440.7475634 159.4560329 444.88760307 159.44604492 449.02783203 C159.43450403 454.32724712 159.45486725 459.62600091 159.48396206 464.92532921 C159.50231151 469.01746838 159.50203506 473.10944821 159.49632454 477.20161819 C159.49617147 479.15601155 159.50220348 481.1104158 159.51461601 483.06476974 C159.52951719 485.79279026 159.51885917 488.51957638 159.50170898 491.24755859 C159.51137695 492.04870087 159.52104492 492.84984314 159.53100586 493.67526245 C159.46253412 498.8845842 158.52243568 501.92270477 155 506 C151.11114123 508.84676584 148.37429102 509.37594145 143.59185886 509.38031673 C142.28978066 509.38875668 140.98770246 509.39719662 139.64616734 509.40589231 C138.20295829 509.40009717 136.75975036 509.39401615 135.31654358 509.38768005 C133.78207475 509.39185249 132.24760901 509.39732951 130.71314901 509.40399987 C126.49458266 509.41848508 122.27621116 509.41420019 118.057634 509.40683305 C113.50880691 509.40211128 108.96002258 509.41460243 104.41120911 509.42485046 C95.49902578 509.44206318 86.58691289 509.44287337 77.67471725 509.43763756 C70.43231701 509.43359929 63.18993762 509.43503534 55.94753838 509.44038582 C54.91751378 509.44113424 53.88748919 509.44188266 52.82625173 509.44265376 C50.73388978 509.44418521 48.64152784 509.44572356 46.5491659 509.44726873 C26.91907859 509.46100268 7.28903112 509.45554976 -12.34105528 509.44408352 C-30.30720065 509.4341498 -48.27324306 509.44709263 -66.23937254 509.47101771 C-84.67911289 509.49538883 -103.11880525 509.5050215 -121.55856138 509.49836498 C-131.91425893 509.49486839 -142.26987727 509.49713384 -152.62556267 509.51461601 C-161.44099437 509.52931314 -170.25629108 509.53000607 -179.07172006 509.5125451 C-183.57069968 509.50401223 -188.0694379 509.50194114 -192.56840515 509.51719666 C-196.68586921 509.53098587 -200.80288374 509.52635545 -204.92032141 509.50695742 C-206.41084624 509.5031793 -207.90140659 509.50617132 -209.39189994 509.51656907 C-211.41657037 509.52969033 -213.44136205 509.5158014 -215.46601772 509.50057125 C-216.59107674 509.50046391 -217.71613576 509.50035658 -218.87528747 509.50024599 C-223.6251936 508.73981716 -226.79513841 506.44150048 -229.8497467 502.78695679 C-231.41424061 498.99633352 -231.42675317 495.44296949 -231.40405273 491.40869141 C-231.41091599 490.55423431 -231.41777924 489.69977722 -231.42485046 488.81942749 C-231.4431355 485.99663611 -231.43927454 483.1744004 -231.43359375 480.3515625 C-231.43815857 478.37681906 -231.44346504 476.40207721 -231.44947815 474.42733765 C-231.4584155 470.28303593 -231.45598349 466.13892677 -231.44604492 461.99462891 C-231.43462373 456.72167696 -231.45465776 451.44940155 -231.48396206 446.17653847 C-231.50245694 442.09259914 -231.50200417 438.00881742 -231.49632454 433.92484665 C-231.49617257 431.98347406 -231.50211243 430.04208992 -231.51461601 428.1007576 C-231.65153972 403.33081049 -224.90661503 384.09583863 -207.23046875 366.1953125 C-206.49441406 365.47085937 -205.75835937 364.74640625 -205 364 C-205.76183594 363.29617188 -206.52367187 362.59234375 -207.30859375 361.8671875 C-214.97544494 354.60542924 -220.72550771 347.12810094 -226 338 C-226.54914063 337.113125 -227.09828125 336.22625 -227.6640625 335.3125 C-231.2461622 329.06884018 -232.38273957 323.1309855 -231 316 C-229.4544551 312.8544896 -227.42468438 310.51051392 -225 308 C-212.19296946 294.70508258 -204.77627629 277.79810975 -202.89038086 259.50024414 C-202.80644797 258.68654641 -202.72251509 257.87284868 -202.63603878 257.03449345 C-201.73338391 247.40025418 -201.70364409 237.76506186 -201.69503975 228.09573174 C-201.69130396 224.71605834 -201.67438851 221.33666014 -201.65428162 217.95704651 C-201.5995326 208.36309968 -201.56823843 198.76911577 -201.54370117 189.17504883 C-201.52769276 183.26561989 -201.49735112 177.35639262 -201.45893669 171.44706917 C-201.4474186 169.22072575 -201.44135752 166.99434615 -201.44125557 164.76797295 C-201.44019514 147.78669774 -200.10789884 131.73404955 -195.25 115.375 C-194.99395996 114.50020996 -194.73791992 113.62541992 -194.47412109 112.72412109 C-191.98245693 104.48916354 -188.79450808 96.71316365 -185 89 C-184.69336426 88.36900391 -184.38672852 87.73800781 -184.07080078 87.08789062 C-177.73972822 74.20913027 -169.87340764 62.71097067 -160.0625 52.21875 C-158.22554251 50.24262907 -156.52188835 48.21045379 -154.8125 46.125 C-118.68577798 4.93223191 -52.71754464 -13.68241617 0 0 Z " fill="#000000" transform="translate(292,3)"/>
<path d="M0 0 C6.47869032 2.32254936 9.16608036 6.36903697 12.25 12.25 C19.66364242 25.83414357 30.75254875 32.14492058 45 37 C46.64574504 37.45865026 48.29156683 37.91702534 49.9375 38.375 C54.69592607 39.8910363 57.26033924 42.93943137 60 47 C61.4671747 49.9343494 61.16456079 52.89964252 61.17700195 56.11743164 C61.18357315 56.85119522 61.19014435 57.5849588 61.19691467 58.34095764 C61.21668943 60.7806916 61.22833056 63.22036334 61.23828125 65.66015625 C61.24235678 66.49764341 61.2464323 67.33513058 61.25063133 68.19799614 C61.27152755 72.6460737 61.28580376 77.09412025 61.29516602 81.54223633 C61.30613034 86.09424334 61.34040167 90.64574784 61.38033772 95.19757938 C61.40677485 98.7299832 61.4148824 102.26227339 61.41844749 105.79476738 C61.42325814 107.46935793 61.43470984 109.14394538 61.45348549 110.81843758 C61.73833557 137.94867756 52.86008561 162.68502796 33.81640625 182.25 C14.61363636 201 14.61363636 201 6 201 C5.8976001 202.03487549 5.7952002 203.06975098 5.68969727 204.13598633 C4.99163372 208.04687191 3.9628047 210.42531308 1.96484375 213.82421875 C1.32788574 214.92185547 0.69092773 216.01949219 0.03466797 217.15039062 C-0.66433627 218.32945776 -1.3633936 219.50849343 -2.0625 220.6875 C-2.7810203 221.91920217 -3.49828462 223.15163781 -4.21435547 224.38476562 C-5.70931873 226.95659445 -7.20967244 229.52515482 -8.71435547 232.09130859 C-12.04483155 237.77771653 -15.32616136 243.49218502 -18.59957886 249.21157837 C-19.59410088 250.9461093 -20.59396365 252.67757463 -21.59399414 254.40893555 C-25.65787447 261.48633782 -29.43376285 268.65920586 -33 276 C-32.28070313 276.28544678 -31.56140625 276.57089355 -30.8203125 276.86499023 C-26.10994607 278.76063545 -21.54611244 280.79836939 -17 283.0625 C-15.52273438 283.66481445 -15.52273438 283.66481445 -14.015625 284.27929688 C-9.72138065 286.51636606 -6.79169862 288.70176321 -5.19799232 293.32816315 C-4.52373067 296.24743744 -3.98401524 299.16504817 -3.48364258 302.11914062 C-3.28050099 303.22203462 -3.07735941 304.32492861 -2.86806202 305.46124363 C-2.22636704 308.97103408 -1.61257799 312.48502403 -1 316 C-0.60064918 318.20892867 -0.19958435 320.41754822 0.20327759 322.62583923 C1.45266439 329.51501086 2.65961855 336.41131074 3.86328125 343.30859375 C4.30432805 345.82401687 4.74559113 348.33940207 5.1870575 350.85475159 C6.10060609 356.06356928 7.0122389 361.27271818 7.92211914 366.48217773 C8.97307661 372.49924466 10.02742329 378.51571034 11.08355933 384.53187031 C12.10768709 390.36594827 13.12985704 396.20036777 14.15105247 402.03495979 C14.58323267 404.50349537 15.01584917 406.97195461 15.44890785 409.44033623 C16.0487734 412.86154113 16.64642019 416.28312595 17.2434082 419.70483398 C17.51214752 421.23411026 17.51214752 421.23411026 17.78631592 422.79428101 C17.9473732 423.7201149 18.10843048 424.64594879 18.27436829 425.59983826 C18.41536107 426.40619941 18.55635386 427.21256056 18.70161915 428.0433569 C19 430 19 430 19 432 C-15.98 432 -50.96 432 -87 432 C-78.99850594 385.55995601 -78.99850594 385.55995601 -76.77734375 372.73828125 C-76.62070692 371.83409266 -76.46407009 370.92990406 -76.30268669 369.99831581 C-73.30811497 352.72018406 -70.27060149 335.45005245 -67.1875 318.1875 C-66.97740295 317.00873291 -66.76730591 315.82996582 -66.55084229 314.61547852 C-65.9666889 311.34098227 -65.38037761 308.06688239 -64.79296875 304.79296875 C-64.62382462 303.84576462 -64.45468048 302.89856049 -64.28041077 301.9226532 C-64.12495285 301.06025528 -63.96949493 300.19785736 -63.80932617 299.30932617 C-63.609524 298.19686775 -63.609524 298.19686775 -63.40568542 297.06193542 C-63.27180923 296.38149673 -63.13793304 295.70105804 -63 295 C-62.86732727 294.28888565 -62.73465454 293.5777713 -62.59796143 292.84510803 C-61.60533438 289.78219452 -59.20195185 288.92030343 -56.50390625 287.328125 C-55.38822266 286.66425781 -54.27253906 286.00039063 -53.12304688 285.31640625 C-52.24700806 284.80811279 -52.24700806 284.80811279 -51.35327148 284.28955078 C-49.56535933 283.25165985 -47.78895471 282.19603884 -46.01367188 281.13671875 C-37.30336503 276 -37.30336503 276 -35 276 C-37.28909616 269.13271152 -40.59684207 263.25645136 -44.3125 257.0625 C-50.05667589 247.36028571 -55.64230809 237.58377365 -61.11645508 227.72680664 C-61.65423584 226.7599292 -62.1920166 225.79305176 -62.74609375 224.796875 C-63.27114502 223.85102539 -63.79619629 222.90517578 -64.3371582 221.93066406 C-66.69278679 217.77900269 -69.16867886 213.70043989 -71.65673828 209.62695312 C-73.46549721 206.08964923 -73.61641877 203.87463224 -73 200 C-74.28003906 199.87238281 -74.28003906 199.87238281 -75.5859375 199.7421875 C-79.48421883 198.89473504 -82.34909852 197.29829677 -85.625 195.125 C-86.53415161 194.52715698 -86.53415161 194.52715698 -87.46166992 193.91723633 C-109.37129326 179.10014215 -122.70322142 156.94042179 -128.04199219 131.31054688 C-129.42055751 123.57154429 -129.3285887 115.81632796 -129.3359375 107.984375 C-129.34237891 106.3577666 -129.34910822 104.73115931 -129.35610962 103.10455322 C-129.36800881 99.71583365 -129.37179751 96.32721552 -129.37060547 92.93847656 C-129.37040135 88.60878024 -129.39783116 84.27973344 -129.43214989 79.9501915 C-129.45442854 76.59919264 -129.45844291 73.24835079 -129.45738602 69.89728546 C-129.45973559 68.30096423 -129.46852267 66.70463824 -129.48405075 65.10839081 C-129.50375549 62.87616031 -129.49785939 60.64534153 -129.48583984 58.41308594 C-129.4901149 56.51426666 -129.4901149 56.51426666 -129.49447632 54.5770874 C-128.71787928 48.95911265 -126.52732544 45.26045406 -122.09375 41.6015625 C-116.6540653 38.8846136 -110.43646635 39.4091492 -104.5 39.375 C-101.96343512 39.31558468 -99.42696793 39.25182956 -96.890625 39.18359375 C-95.08368164 39.13887939 -95.08368164 39.13887939 -93.24023438 39.09326172 C-64.55438546 38.26761417 -39.22302318 25.49368931 -18 7 C-16.72295812 5.88747909 -15.44435842 4.77674335 -14.1640625 3.66796875 C-13.60412598 3.17965576 -13.04418945 2.69134277 -12.46728516 2.18823242 C-8.72180499 -0.84492099 -4.60783556 -0.42737092 0 0 Z " fill="#FDECE3" transform="translate(290,80)"/>
<path d="M0 0 C0.66 0 1.32 0 2 0 C2.18304688 1.22074219 2.36609375 2.44148438 2.5546875 3.69921875 C4.05818527 10.4074336 7.64759479 15.96296863 11.125 21.8125 C11.83752685 23.03140727 12.54876701 24.25106751 13.25878906 25.47143555 C14.74151761 28.01771758 16.22976945 30.56065038 17.72167969 33.1015625 C21.10005271 38.86741563 24.40173289 44.67708246 27.70843506 50.48422241 C29.35992811 53.38311773 31.01609376 56.27933312 32.671875 59.17578125 C33.54102539 60.70452881 33.54102539 60.70452881 34.42773438 62.26416016 C35.37950891 63.92030696 36.34560698 65.56848564 37.33789062 67.20068359 C39.36046476 70.54182729 40 71.95588966 40 76 C37.73681641 77.83105469 37.73681641 77.83105469 34.6015625 79.671875 C33.48265625 80.33574219 32.36375 80.99960937 31.2109375 81.68359375 C30.62280273 82.02245605 30.03466797 82.36131836 29.42871094 82.71044922 C27.63085972 83.74662281 25.84604236 84.80270349 24.0625 85.86328125 C15.31701015 91 15.31701015 91 13 91 C12.8805603 92.21623047 12.76112061 93.43246094 12.63806152 94.68554688 C11.9507291 100.84617906 10.86655038 106.92845136 9.79101562 113.03125 C9.56814377 114.30867569 9.34527191 115.58610138 9.11564636 116.90223694 C8.50881484 120.37940271 7.89843956 123.85593724 7.2871685 127.33232498 C6.77659286 130.23783382 6.26772087 133.14364001 5.75882387 136.04944324 C4.55940541 142.89783694 3.35704552 149.74570968 2.15283203 156.59326172 C0.909787 163.66192924 -0.32823494 170.73146372 -1.56383848 177.80143547 C-2.62595023 183.87767338 -3.69113806 189.95336646 -4.75882387 196.0286274 C-5.39610315 199.65500723 -6.0321955 203.28158524 -6.66532898 206.90869141 C-7.369396 210.94122885 -8.07987324 214.97261054 -8.79101562 219.00390625 C-9.00091629 220.21111832 -9.21081696 221.41833038 -9.42707825 222.66212463 C-9.71726082 224.29805824 -9.71726082 224.29805824 -10.01330566 225.96704102 C-10.26438961 227.39718285 -10.26438961 227.39718285 -10.52054596 228.85621643 C-11 231 -11 231 -12 232 C-13.70717238 232.10494582 -15.4186956 232.13965176 -17.1290741 232.14717102 C-18.24086029 232.15432632 -19.35264648 232.16148163 -20.49812317 232.16885376 C-22.34406319 232.17288712 -22.34406319 232.17288712 -24.22729492 232.17700195 C-25.51502808 232.18357315 -26.80276123 232.19014435 -28.1295166 232.19691467 C-31.67312942 232.21435202 -35.21672871 232.22488464 -38.76037383 232.2331202 C-40.97406929 232.23826637 -43.18776053 232.24434239 -45.40145302 232.25063133 C-52.32660808 232.26969418 -59.25175243 232.28392091 -66.1769287 232.2922433 C-74.1721054 232.30200971 -82.1670048 232.32830877 -90.1620838 232.36874419 C-96.3396437 232.39891509 -102.51712419 232.41371323 -108.69475633 232.41702431 C-112.38500491 232.41937446 -116.07495762 232.42832902 -119.76512718 232.45348549 C-123.88550591 232.48111897 -128.0052669 232.47693214 -132.12573242 232.4699707 C-133.34623795 232.48278076 -134.56674347 232.49559082 -135.82423401 232.50878906 C-146.36208863 232.4437976 -146.36208863 232.4437976 -151 228 C-154.49293777 223.82103744 -154.43345978 219.63485669 -154.40405273 214.40869141 C-154.41091599 213.55423431 -154.41777924 212.69977722 -154.42485046 211.81942749 C-154.4431355 208.99663611 -154.43927454 206.1744004 -154.43359375 203.3515625 C-154.43815857 201.37681906 -154.44346504 199.40207721 -154.44947815 197.42733765 C-154.4584155 193.28303593 -154.45598349 189.13892677 -154.44604492 184.99462891 C-154.43462373 179.72167696 -154.45465776 174.44940155 -154.48396206 169.17653847 C-154.50245694 165.09259914 -154.50200417 161.00881742 -154.49632454 156.92484665 C-154.49617257 154.98347406 -154.50211243 153.04208992 -154.51461601 151.1007576 C-154.64220196 128.02004067 -149.06542897 109.21295961 -133 92 C-121.11203165 80.62889984 -105.26829627 74.54898865 -90.21875 68.60546875 C-88.71314187 68.00755767 -87.20765071 67.40935199 -85.70227051 66.81086731 C-82.57020526 65.56680044 -79.4369423 64.32581672 -76.30273438 63.0871582 C-72.28112025 61.49757525 -68.26237091 59.9008896 -64.24443817 58.3020277 C-61.14689752 57.07017156 -58.04803767 55.84166411 -54.94874573 54.61422157 C-53.46515614 54.02627135 -51.98194875 53.4373558 -50.49913025 52.84746361 C-48.43758079 52.02800217 -46.37433459 51.21297485 -44.31054688 50.39916992 C-43.13713745 49.93459885 -41.96372803 49.47002777 -40.75476074 48.99137878 C-38 48 -38 48 -36 48 C-35.979375 47.175 -35.95875 46.35 -35.9375 45.5 C-33.91669314 37.95565439 -26.65824835 32.62658077 -21.19140625 27.3046875 C-20.57639755 26.70444763 -19.96138885 26.10420776 -19.32774353 25.48577881 C-16.75237731 22.97430815 -14.17719457 20.46329757 -11.57836914 17.97607422 C-9.66466152 16.14098609 -7.77060553 14.28741943 -5.87890625 12.4296875 C-4.99314659 11.59508499 -4.99314659 11.59508499 -4.0894928 10.74362183 C-1.33271383 8.00570458 -0.05670156 6.52496982 0.36743164 2.59814453 C0.2461792 1.74075684 0.12492676 0.88336914 0 0 Z " fill="#1467B2" transform="translate(215,280)"/>
<path d="M0 0 C2.96068418 1.33507146 5.05790522 2.80240662 7.35986328 5.08520508 C7.99376984 5.70957962 8.62767639 6.33395416 9.28079224 6.97724915 C10.29035477 7.98817879 10.29035477 7.98817879 11.3203125 9.01953125 C12.0201828 9.71511642 12.7200531 10.4107016 13.44113159 11.12736511 C14.91789208 12.59838862 16.39204679 14.07203207 17.86376953 15.5480957 C20.11495751 17.80244342 22.37913092 20.0431489 24.64453125 22.28320312 C26.07893561 23.7153344 27.51255599 25.14825141 28.9453125 26.58203125 C29.62240265 27.24991165 30.2994928 27.91779205 30.99710083 28.60591125 C35.11125292 32.76089524 38 35.88420879 38 42 C38.68468857 42.11193695 39.36937714 42.2238739 40.07481384 42.33920288 C43.48381132 43.10929257 46.55293078 44.28472992 49.80297852 45.57275391 C50.46718307 45.83475586 51.13138763 46.09675781 51.8157196 46.36669922 C54.00530832 47.23204206 56.19224032 48.10386255 58.37890625 48.9765625 C59.91239027 49.58623024 61.44591449 50.19579687 62.97947693 50.80526733 C66.19598973 52.08498579 69.41102372 53.36834411 72.62524414 54.65380859 C76.71070717 56.28698343 80.80107339 57.90745991 84.89288425 59.52465248 C88.06571776 60.78105347 91.235005 62.04621749 94.40342522 63.31370163 C95.90781986 63.91392645 97.41343343 64.51110673 98.92035103 65.10496902 C122.91301495 74.57267275 140.15289559 87.08218649 151.3203125 110.8046875 C154.81546798 119.11539052 156.30071711 127.19678186 156.29052734 136.18823242 C156.29724457 137.05773026 156.30396179 137.92722809 156.31088257 138.82307434 C156.32972014 141.66726551 156.3337784 144.51121929 156.3359375 147.35546875 C156.34237145 149.34605504 156.34910025 151.33664039 156.35610962 153.32722473 C156.36804386 157.48534337 156.37179403 161.64337913 156.37060547 165.80151367 C156.3704016 171.12452524 156.39779066 176.44700698 156.43214989 181.76989269 C156.45439336 185.87488748 156.45844392 189.97975374 156.45738602 194.08480263 C156.45974247 196.04757845 156.46856846 198.01035779 156.48405075 199.97307396 C156.50367469 202.71574563 156.49788874 205.45726037 156.48583984 208.19995117 C156.49707886 209.00580658 156.50831787 209.81166199 156.51989746 210.64193726 C156.46164442 215.86740258 155.53775207 218.91136798 152 223 C148.33382505 225.62983115 145.83816813 226.37347923 141.34953308 226.36076355 C140.22357727 226.36488754 139.09762146 226.36901154 137.93754578 226.3732605 C136.71187393 226.36247467 135.48620209 226.35168884 134.22338867 226.34057617 C132.92543365 226.34101425 131.62747864 226.34145233 130.29019165 226.34190369 C126.73882288 226.34276327 123.18775903 226.32514374 119.63646102 226.30418181 C115.92223268 226.28540876 112.2079971 226.28366408 108.49372864 226.28010559 C101.46375834 226.27078696 94.43392825 226.24617569 87.40401965 226.21605712 C79.39923905 226.18250741 71.3944517 226.16602568 63.38961828 226.15097082 C46.92633015 226.11962592 30.46318298 226.06686903 14 226 C11.93844105 217.40485358 10.15876244 208.80371517 8.63989258 200.09716797 C8.42487595 198.88089218 8.20985931 197.66461639 7.98832703 196.41148376 C7.40744893 193.1212742 6.82961598 189.83056032 6.25337815 186.53953695 C5.64700056 183.07993669 5.03706229 179.62096391 4.42765808 176.16189575 C3.40744491 170.36779322 2.38999801 164.57321026 1.37426758 158.77832031 C0.200304 152.08087401 -0.97797654 145.384198 -2.15854377 138.68791282 C-3.29768464 132.22608753 -4.43393352 125.76375704 -5.56881142 119.30118179 C-6.05074337 116.55706802 -6.53366666 113.81313146 -7.01738548 111.06933212 C-7.69059728 107.24970435 -8.35956697 103.42934049 -9.02807617 99.60888672 C-9.32958084 97.90243736 -9.32958084 97.90243736 -9.63717651 96.16151428 C-9.81795242 95.12440811 -9.99872833 94.08730194 -10.1849823 93.01876831 C-10.34332141 92.11662535 -10.50166052 91.21448238 -10.66479778 90.28500175 C-11 88 -11 88 -11 85 C-12.07350708 84.599021 -12.07350708 84.599021 -13.16870117 84.18994141 C-16.05002983 82.97897341 -18.61774736 81.56134368 -21.30078125 79.9609375 C-22.27724609 79.38085938 -23.25371094 78.80078125 -24.25976562 78.203125 C-25.26716797 77.59984375 -26.27457031 76.9965625 -27.3125 76.375 C-28.33923828 75.76398438 -29.36597656 75.15296875 -30.42382812 74.5234375 C-32.95113875 73.01880606 -35.47643399 71.5109006 -38 70 C-37.40861433 66.13064806 -36.25769222 63.28444336 -34.33203125 59.88671875 C-33.4970813 58.40353149 -33.4970813 58.40353149 -32.64526367 56.89038086 C-32.04045166 55.83343018 -31.43563965 54.77647949 -30.8125 53.6875 C-29.87724487 52.03536499 -29.87724487 52.03536499 -28.9230957 50.34985352 C-23.99652866 41.67383096 -18.97879112 33.05087049 -13.93237305 24.4440918 C-9.18838038 16.35092024 -4.55781531 8.19924448 0 0 Z " fill="#1467B2" transform="translate(295,286)"/>
<path d="M0 0 C0.96905273 0.44432373 1.93810547 0.88864746 2.93652344 1.34643555 C3.83185791 1.71454346 4.72719238 2.08265137 5.6496582 2.46191406 C8.65254866 3.85251434 11.56974866 5.3696376 14.49902344 6.90893555 C16.04106445 7.58279297 16.04106445 7.58279297 17.61425781 8.27026367 C21.97843538 10.64892429 25.09843633 12.93926093 26.75320053 17.69211578 C27.42973864 20.61012314 27.96748846 23.5252971 28.46435547 26.47924805 C28.76782536 28.13210863 28.76782536 28.13210863 29.07742596 29.81836033 C29.71647361 33.32455004 30.32690312 36.83502379 30.93652344 40.34643555 C31.33541129 42.55511969 31.73623427 44.76345531 32.13908386 46.97142029 C33.38902536 53.8608247 34.59608566 60.75742348 35.79980469 67.6550293 C36.24085149 70.17045241 36.68211457 72.68583762 37.12358093 75.20118713 C38.03712953 80.41000482 38.94876234 85.61915372 39.85864258 90.82861328 C40.90960005 96.84568021 41.96394673 102.86214588 43.02008277 108.87830585 C44.04421053 114.71238382 45.06638048 120.54680331 46.08757591 126.38139534 C46.51975611 128.84993092 46.9523726 131.31839016 47.38543129 133.78677177 C47.98529683 137.20797668 48.58294363 140.6295615 49.17993164 144.05126953 C49.35909119 145.07078705 49.53825073 146.09030457 49.72283936 147.14071655 C49.96442528 148.52946739 49.96442528 148.52946739 50.21089172 149.9462738 C50.35188451 150.75263495 50.49287729 151.55899611 50.63814259 152.38979244 C50.93652344 154.34643555 50.93652344 154.34643555 50.93652344 156.34643555 C15.95652344 156.34643555 -19.02347656 156.34643555 -55.06347656 156.34643555 C-47.0619825 109.90639156 -47.0619825 109.90639156 -44.84082031 97.0847168 C-44.60586507 95.7284339 -44.60586507 95.7284339 -44.36616325 94.34475136 C-41.37159154 77.06661961 -38.33407805 59.796488 -35.25097656 42.53393555 C-35.04087952 41.35516846 -34.83078247 40.17640137 -34.61431885 38.96191406 C-34.03016546 35.68741782 -33.44385417 32.41331793 -32.85644531 29.1394043 C-32.60272911 27.7185981 -32.60272911 27.7185981 -32.34388733 26.26908875 C-32.18842941 25.40669083 -32.0329715 24.54429291 -31.87280273 23.65576172 C-31.73960129 22.91412277 -31.60639984 22.17248383 -31.46916199 21.40837097 C-31.3352858 20.72793228 -31.20140961 20.04749359 -31.06347656 19.34643555 C-30.93328125 18.63786911 -30.80308594 17.92930267 -30.66894531 17.19926453 C-29.21830115 12.76006674 -22.70670745 10.40694195 -18.78198242 8.09887695 C-16.8857419 6.97721194 -15.01320362 5.82189934 -13.13964844 4.6628418 C-11.93455217 3.94323933 -10.72820886 3.22572031 -9.52050781 2.51049805 C-8.42714111 1.8551709 -7.33377441 1.19984375 -6.20727539 0.5246582 C-3.06347656 -0.65356445 -3.06347656 -0.65356445 0 0 Z " fill="#F48120" transform="translate(258.0634765625,355.653564453125)"/>
<path d="M0 0 C0.66 0 1.32 0 2 0 C2.18304688 1.22074219 2.36609375 2.44148438 2.5546875 3.69921875 C4.05818527 10.4074336 7.64759479 15.96296863 11.125 21.8125 C11.83752685 23.03140727 12.54876701 24.25106751 13.25878906 25.47143555 C14.74151761 28.01771758 16.22976945 30.56065038 17.72167969 33.1015625 C21.10005271 38.86741563 24.40173289 44.67708246 27.70843506 50.48422241 C29.35992811 53.38311773 31.01609376 56.27933312 32.671875 59.17578125 C33.54102539 60.70452881 33.54102539 60.70452881 34.42773438 62.26416016 C35.37950891 63.92030696 36.34560698 65.56848564 37.33789062 67.20068359 C39.36046476 70.54182729 40 71.95588966 40 76 C37.73681641 77.83105469 37.73681641 77.83105469 34.6015625 79.671875 C33.48265625 80.33574219 32.36375 80.99960937 31.2109375 81.68359375 C30.62280273 82.02245605 30.03466797 82.36131836 29.42871094 82.71044922 C27.63085972 83.74662281 25.84604236 84.80270349 24.0625 85.86328125 C15.31701015 91 15.31701015 91 13 91 C13 91.66 13 92.32 13 93 C-0.62487529 100.26519625 -0.62487529 100.26519625 -6.86227417 98.77531433 C-13.99570856 96.18814724 -17.64573925 89.89812813 -20.8046875 83.41796875 C-21.21413605 82.60435379 -21.62358459 81.79073883 -22.04544067 80.95246887 C-22.90170579 79.24099423 -23.75006781 77.52554471 -24.59082031 75.80639648 C-25.87159628 73.1944414 -27.18363685 70.60002802 -28.5 68.00585938 C-29.33264777 66.33168201 -30.16344008 64.65658028 -30.9921875 62.98046875 C-31.38066864 62.21453903 -31.76914978 61.44860931 -32.16940308 60.6594696 C-35.13627193 54.51596045 -37.13644107 48.62514671 -35.03198242 41.91210938 C-32.25872912 37.93765721 -28.99125432 34.73909 -25.48828125 31.40625 C-23.99374239 29.94962724 -22.49961393 28.4925833 -21.00585938 27.03515625 C-18.65429083 24.7582055 -16.29822017 22.48632267 -13.93432617 20.22216797 C-11.64747814 18.02582467 -9.37956478 15.81127849 -7.11328125 13.59375 C-6.4008577 12.92170532 -5.68843414 12.24966064 -4.954422 11.55725098 C-0.9686712 7.73560045 -0.9686712 7.73560045 0.44458008 2.52539062 C0.22451294 1.27532227 0.22451294 1.27532227 0 0 Z " fill="#06559B" transform="translate(215,280)"/>
<path d="M0 0 C2.96068418 1.33507146 5.05790522 2.80240662 7.35986328 5.08520508 C7.99376984 5.70957962 8.62767639 6.33395416 9.28079224 6.97724915 C10.29035477 7.98817879 10.29035477 7.98817879 11.3203125 9.01953125 C12.0201828 9.71511642 12.7200531 10.4107016 13.44113159 11.12736511 C14.91789208 12.59838862 16.39204679 14.07203207 17.86376953 15.5480957 C20.11495751 17.80244342 22.37913092 20.0431489 24.64453125 22.28320312 C26.07893561 23.7153344 27.51255599 25.14825141 28.9453125 26.58203125 C29.62240265 27.24991165 30.2994928 27.91779205 30.99710083 28.60591125 C37.88560503 35.56278208 37.88560503 35.56278208 38.06762695 41.03198242 C36.49507996 49.60407816 32.35226766 57.16280386 28.43334961 64.8605957 C27.18554463 67.31634828 25.96181606 69.78306968 24.74023438 72.25195312 C23.94671561 73.83143486 23.15184007 75.41023585 22.35546875 76.98828125 C21.99382126 77.71856033 21.63217377 78.44883942 21.25956726 79.20124817 C18.43550971 84.69768446 15.20724233 88.52850511 10 92 C2.80336077 93.1348732 -2.31983765 91.48908729 -8.375 87.75 C-9.12378418 87.31123535 -9.87256836 86.8724707 -10.64404297 86.42041016 C-13.10936957 84.96821757 -15.55423191 83.48486379 -18 82 C-19.86885944 80.88645479 -21.73867329 79.77451 -23.609375 78.6640625 C-28.42101231 75.80017328 -33.21590442 72.90963419 -38 70 C-37.40861433 66.13064806 -36.25769222 63.28444336 -34.33203125 59.88671875 C-33.4970813 58.40353149 -33.4970813 58.40353149 -32.64526367 56.89038086 C-32.04045166 55.83343018 -31.43563965 54.77647949 -30.8125 53.6875 C-29.87724487 52.03536499 -29.87724487 52.03536499 -28.9230957 50.34985352 C-23.99652866 41.67383096 -18.97879112 33.05087049 -13.93237305 24.4440918 C-9.18838038 16.35092024 -4.55781531 8.19924448 0 0 Z " fill="#05549B" transform="translate(295,286)"/>
</svg>
