<svg width="80" height="40" viewBox="0 0 80 40" fill="none" xmlns="http://www.w3.org/2000/svg">
<rect width="80" height="40" fill="white"/>
<path d="M7.64234 26.3245L12.0486 20.8308C12.0591 20.8177 12.0657 20.802 12.0676 20.7853C12.0695 20.7687 12.0667 20.7519 12.0594 20.7368C12.0522 20.7217 12.0408 20.709 12.0266 20.7001C12.0124 20.6912 11.996 20.6865 11.9793 20.6865H8.62906C8.61571 20.6865 8.60254 20.6895 8.59051 20.6953C8.57848 20.701 8.56792 20.7095 8.5596 20.7199L3.58842 26.944C3.57693 26.9583 3.56125 26.9688 3.54355 26.9739C3.52584 26.979 3.50699 26.9785 3.4896 26.9724C3.47221 26.9663 3.45714 26.955 3.44648 26.94C3.43582 26.925 3.4301 26.907 3.4301 26.8886V16.1688C3.43009 16.1453 3.42073 16.1227 3.40406 16.1061C3.38739 16.0894 3.36479 16.0801 3.34122 16.0801H0.0888573C0.0652909 16.0801 0.0426897 16.0894 0.0260257 16.1061C0.00936173 16.1227 0 16.1453 0 16.1688L0 33.9768C0 34.0003 0.00936173 34.0229 0.0260257 34.0395C0.0426897 34.0562 0.0652909 34.0655 0.0888573 34.0655H3.34129C3.36486 34.0655 3.38746 34.0562 3.40413 34.0395C3.4208 34.0229 3.43016 34.0003 3.43017 33.9768V27.8968C3.43017 27.8732 3.43953 27.8507 3.45619 27.834C3.47286 27.8174 3.49546 27.808 3.51902 27.808H4.84131C4.85543 27.808 4.86935 27.8114 4.88191 27.8178C4.89447 27.8243 4.90531 27.8336 4.91354 27.8451L9.34991 34.0284C9.35813 34.0399 9.36897 34.0493 9.38154 34.0557C9.3941 34.0621 9.40802 34.0655 9.42214 34.0655H13.0748C13.0912 34.0655 13.1073 34.061 13.1213 34.0524C13.1353 34.0438 13.1467 34.0315 13.1541 34.0169C13.1615 34.0022 13.1647 33.9858 13.1634 33.9695C13.162 33.9531 13.1562 33.9375 13.1464 33.9243L7.63996 26.4324C7.62841 26.4167 7.62238 26.3976 7.62281 26.3781C7.62324 26.3585 7.6301 26.3397 7.64234 26.3245Z" fill="#DC0019"/>
<path d="M43.4783 16.1688V33.9768C43.4783 34.0003 43.4876 34.0229 43.5043 34.0395C43.521 34.0562 43.5436 34.0655 43.5671 34.0655H46.8173C46.8409 34.0655 46.8635 34.0562 46.8801 34.0395C46.8968 34.0229 46.9062 34.0003 46.9062 33.9768V16.1688C46.9062 16.1453 46.8968 16.1227 46.8801 16.1061C46.8635 16.0894 46.8409 16.0801 46.8173 16.0801H43.5671C43.5436 16.0801 43.521 16.0894 43.5043 16.1061C43.4876 16.1227 43.4783 16.1453 43.4783 16.1688Z" fill="#DC0019"/>
<path d="M54.0669 16.1694L54.0417 19.7179C54.0416 19.7296 54.0438 19.7412 54.0483 19.7521C54.0527 19.7629 54.0592 19.7728 54.0675 19.7811C54.0757 19.7894 54.0856 19.796 54.0964 19.8005C54.1072 19.805 54.1188 19.8073 54.1305 19.8073H56.2124C56.236 19.8073 56.2586 19.8166 56.2752 19.8333C56.2919 19.8499 56.3012 19.8725 56.3012 19.896V22.4523H54.1299C54.1182 22.4523 54.1067 22.4546 54.0959 22.459C54.0851 22.4635 54.0753 22.47 54.0671 22.4783C54.0588 22.4865 54.0523 22.4963 54.0478 22.507C54.0433 22.5178 54.041 22.5293 54.041 22.541V28.8287C54.041 30.2019 54.8313 30.9799 56.2285 30.9799H57.4706C57.4941 30.9799 57.5167 30.9893 57.5334 31.0059C57.5501 31.0226 57.5594 31.0451 57.5594 31.0687V33.9769C57.5594 34.0005 57.5501 34.023 57.5334 34.0397C57.5167 34.0563 57.4941 34.0657 57.4706 34.0657H56.4117C52.463 34.0657 50.6221 32.7168 50.6221 28.5951L50.6082 23.8196C50.5884 23.1276 51.6676 22.4502 51.6676 22.4502L48.4463 22.4523C48.4346 22.4523 48.4231 22.45 48.4123 22.4455C48.4015 22.4411 48.3917 22.4345 48.3835 22.4263C48.3752 22.418 48.3687 22.4083 48.3642 22.3975C48.3597 22.3867 48.3574 22.3752 48.3574 22.3635V19.8959C48.3574 19.8843 48.3597 19.8728 48.3642 19.862C48.3687 19.8512 48.3752 19.8414 48.3835 19.8332C48.3917 19.825 48.4015 19.8184 48.4123 19.814C48.4231 19.8095 48.4346 19.8072 48.4463 19.8072H50.5337C50.5572 19.8072 50.5797 19.798 50.5963 19.7815C50.613 19.7649 50.6224 19.7425 50.6226 19.7191L50.6478 16.1682C50.648 16.1448 50.6574 16.1224 50.6741 16.1058C50.6907 16.0893 50.7132 16.0801 50.7367 16.0801H53.9781C53.9898 16.0801 54.0014 16.0824 54.0122 16.0869C54.023 16.0914 54.0328 16.098 54.0411 16.1063C54.0494 16.1146 54.0559 16.1245 54.0603 16.1353C54.0647 16.1461 54.067 16.1577 54.0669 16.1694Z" fill="#DC0019"/>
<path d="M62.7201 20.6621H59.4685C59.4194 20.6621 59.3796 20.7018 59.3796 20.7508V33.9655C59.3796 34.0145 59.4194 34.0542 59.4685 34.0542H62.7201C62.7691 34.0542 62.8089 34.0145 62.8089 33.9655V20.7508C62.8089 20.7018 62.7691 20.6621 62.7201 20.6621Z" fill="#DC0019"/>
<path d="M21.9003 20.6932H21.7547C19.7352 20.6932 18.4063 21.6259 17.6894 23.3386C17.6847 23.3499 17.6823 23.362 17.6823 23.3743V16.1688C17.6823 16.1453 17.6729 16.1227 17.6563 16.1061C17.6396 16.0894 17.617 16.0801 17.5934 16.0801H14.3411C14.3294 16.0801 14.3178 16.0824 14.307 16.0868C14.2963 16.0913 14.2865 16.0978 14.2782 16.1061C14.27 16.1143 14.2634 16.1241 14.259 16.1349C14.2545 16.1456 14.2522 16.1572 14.2522 16.1688V33.9768C14.2522 33.9884 14.2545 34 14.259 34.0108C14.2634 34.0215 14.27 34.0313 14.2782 34.0395C14.2865 34.0478 14.2963 34.0543 14.307 34.0588C14.3178 34.0632 14.3294 34.0655 14.3411 34.0655H17.5934C17.617 34.0655 17.6396 34.0562 17.6563 34.0395C17.6729 34.0229 17.6823 34.0003 17.6823 33.9768V26.7567C17.6823 24.9825 18.7925 23.7746 20.4943 23.7746C22.0747 23.7746 23.1343 24.8325 23.1343 26.5341V33.9768C23.1342 33.9884 23.1365 34 23.141 34.0107C23.1455 34.0215 23.152 34.0313 23.1603 34.0395C23.1685 34.0478 23.1783 34.0543 23.1891 34.0588C23.1999 34.0632 23.2115 34.0655 23.2231 34.0655H26.4733C26.485 34.0655 26.4965 34.0632 26.5073 34.0588C26.5181 34.0543 26.5279 34.0478 26.5361 34.0395C26.5444 34.0313 26.5509 34.0215 26.5554 34.0107C26.5598 34 26.5621 33.9884 26.5621 33.9768V26.8537C26.5621 22.8621 24.9596 20.6932 21.9003 20.6932Z" fill="#DC0019"/>
<path d="M56.9055 19.8047H56.3879C56.3389 19.8047 56.2991 19.8444 56.2991 19.8934V22.3594C56.2991 22.4084 56.3389 22.4481 56.3879 22.4481H56.9055C56.9546 22.4481 56.9944 22.4084 56.9944 22.3594V19.8934C56.9944 19.8444 56.9546 19.8047 56.9055 19.8047Z" fill="#DC0019"/>
<path d="M38.1309 20.7502V22.7245C37.6576 22.1058 37.0511 21.6011 36.3563 21.2478C35.5561 20.843 34.6683 20.6416 33.7715 20.6615C32.6893 20.6408 31.6234 20.927 30.6974 21.4868C29.7715 22.0466 29.0235 22.8572 28.5403 23.8244C27.9932 24.9041 27.7196 26.1014 27.7435 27.3112C27.7187 28.5332 27.9922 29.7428 28.5403 30.8356C29.0319 31.8111 29.7825 32.633 30.7101 33.2116C31.6228 33.7724 32.6756 34.0643 33.7473 34.0535C34.6529 34.072 35.5491 33.8668 36.3563 33.4562C37.0599 33.1024 37.6684 32.5854 38.1309 31.9486V33.9648C38.1309 33.9883 38.1403 34.0109 38.1569 34.0275C38.1736 34.0442 38.1962 34.0535 38.2198 34.0535H41.4699C41.4935 34.0535 41.5161 34.0442 41.5328 34.0275C41.5494 34.0109 41.5588 33.9883 41.5588 33.9648V20.7502C41.5588 20.7267 41.5494 20.7041 41.5328 20.6875C41.5161 20.6708 41.4935 20.6615 41.4699 20.6615H38.2198C38.1962 20.6615 38.1736 20.6708 38.1569 20.6875C38.1403 20.7041 38.1309 20.7267 38.1309 20.7502ZM37.6541 29.4073C37.358 29.9566 36.9117 30.4107 36.3673 30.7166C35.8384 31.0185 35.2394 31.1766 34.6302 31.1751C34.0301 31.1755 33.4411 31.0133 32.9262 30.7056C32.381 30.3838 31.9357 29.9178 31.6393 29.3589C31.3022 28.73 31.1341 28.0245 31.1515 27.3113C31.1324 26.6057 31.3007 25.9076 31.6393 25.288C31.9368 24.7456 32.3782 24.2957 32.9151 23.9876C33.4376 23.6911 34.0292 23.5375 34.6302 23.5423C35.2394 23.5408 35.8384 23.6989 36.3673 24.0008C36.9117 24.3068 37.358 24.7608 37.6541 25.3101C37.987 25.941 38.1512 26.647 38.1309 27.3599C38.1509 28.0719 37.9867 28.7771 37.6541 29.4073Z" fill="#DC0019"/>
<path d="M69.9327 7.26613C69.8841 7.39974 69.8366 7.53216 69.788 7.66459C69.6627 8.01078 69.5361 8.35702 69.4108 8.70202C69.2332 9.18673 69.0564 9.67143 68.8804 10.1561C68.6809 10.7052 68.481 11.2543 68.2807 11.8034C68.0836 12.344 67.8869 12.8845 67.6907 13.4251C67.524 13.8819 67.3573 14.3387 67.1906 14.7954C67.0812 15.0955 66.9717 15.3967 66.8634 15.6968C66.8342 15.7782 66.805 15.8584 66.7782 15.9397C66.7745 15.9484 66.7712 15.9574 66.7685 15.9665C66.6091 16.4244 66.4668 16.886 66.2782 17.3379C66.2203 17.4666 66.158 17.5935 66.0889 17.7165C66.0373 17.8095 65.9804 17.8994 65.9186 17.9859C65.8736 18.049 65.824 18.1087 65.7702 18.1645C65.7325 18.2037 65.6911 18.2392 65.6465 18.2706C65.6273 18.2864 65.6049 18.2979 65.5808 18.3045C65.5568 18.3111 65.5316 18.3125 65.507 18.3087C65.4378 18.2927 65.4531 18.2068 65.454 18.155C65.4552 18.0797 65.4551 18.0045 65.4536 17.9293C65.4504 17.779 65.4415 17.629 65.4268 17.4792C65.4121 17.3298 65.3913 17.1811 65.3647 17.0332C65.3379 16.8855 65.3051 16.7392 65.266 16.5941C65.227 16.4489 65.1815 16.3058 65.1298 16.1645C65.116 16.1271 65.1018 16.0898 65.0872 16.0527C64.8419 15.4187 64.4593 14.8466 63.9668 14.3775C63.9634 14.3739 63.9598 14.3707 63.9558 14.3678C63.9516 14.3644 63.9475 14.3607 63.9437 14.3569C63.9419 14.3558 63.9403 14.3546 63.9388 14.3533C63.5625 14.0109 63.1383 13.7248 62.6797 13.5042C62.6128 13.4714 62.5447 13.4398 62.4753 13.4094C62.4643 13.4049 62.4543 13.3983 62.446 13.3899C62.4376 13.3815 62.4309 13.3716 62.4264 13.3606C62.4219 13.3497 62.4195 13.3379 62.4196 13.3261C62.4196 13.3142 62.422 13.3025 62.4266 13.2916C63.3476 11.1572 66.6334 9.35927 66.7356 9.30339C64.6724 10.0201 62.0982 12.2833 61.3427 12.9599C61.3248 12.9759 61.3031 12.9871 61.2798 12.9926C61.2564 12.9981 61.2321 12.9977 61.2089 12.9915C61.0057 12.938 60.8013 12.887 60.5994 12.8336C59.7332 12.6101 58.76 12.3404 58.0787 11.7305C57.9268 11.6136 57.8057 11.4614 57.726 11.2872C57.6463 11.113 57.6104 10.922 57.6213 10.7308C57.7211 9.74192 58.9206 9.44673 59.6991 9.18313C59.8926 9.11752 60.0848 9.0507 60.2782 8.98511C60.2796 8.98384 60.2813 8.98299 60.2831 8.98267C60.4862 8.91345 60.6882 8.84298 60.8914 8.77374C61.316 8.62796 61.741 8.48178 62.1664 8.3352C62.6165 8.1797 63.067 8.02461 63.5179 7.86993C63.9705 7.71444 64.4222 7.55894 64.8732 7.40344C65.3001 7.25647 65.7267 7.10948 66.1529 6.96248C66.5289 6.83372 66.9052 6.70455 67.2819 6.57498C67.7029 6.42918 68.1286 6.29556 68.5459 6.13885C68.692 6.08127 68.8443 6.04052 68.9997 6.01738C69.2278 5.97854 69.4623 6.02434 69.659 6.14616C70.0081 6.3769 70.069 6.8944 69.9327 7.26613Z" fill="#DC0019"/>
<path d="M61.0948 19.0622C62.1237 19.0622 62.9577 18.2294 62.9577 17.202C62.9577 16.1746 62.1237 15.3418 61.0948 15.3418C60.066 15.3418 59.2319 16.1746 59.2319 17.202C59.2319 18.2294 60.066 19.0622 61.0948 19.0622Z" fill="#DC0019"/>
</svg>
