<svg width="116" height="31" viewBox="0 0 116 31" fill="none" xmlns="http://www.w3.org/2000/svg">
<path d="M43.4828 29.9472C45.1555 29.9078 46.5633 29.5124 47.7423 28.7213C48.8824 27.97 49.758 26.9025 50.328 25.599C50.9365 24.2944 51.2409 22.8712 51.2409 21.2894C51.2409 19.9862 51.0882 18.919 50.7842 18.0882C50.4801 17.2183 50.0614 16.5072 49.568 15.9143C48.8824 15.0838 48.0077 14.4121 46.9815 13.9377C45.9548 13.4633 44.7767 13.0287 43.4453 12.6335C42.8366 12.4351 42.1137 12.1591 41.2775 11.7241C40.4408 11.3286 39.7188 10.8534 39.1096 10.2611C38.6534 9.74707 38.3117 9.15514 38.1599 8.56056C38.0072 7.96802 37.9311 7.37547 37.9311 6.8217C37.9311 6.1104 38.0834 5.43889 38.3868 4.72759C38.6534 4.01528 39.1478 3.42233 39.8329 2.94793C40.5169 2.47353 41.3918 2.19725 42.5324 2.19725C43.4066 2.19725 44.2053 2.3158 44.8901 2.63207C45.5744 2.90814 46.1829 3.30378 46.6775 3.89653C47.4383 4.76677 48.0077 5.55704 48.312 6.30853C48.6545 7.05921 48.921 7.69174 49.0347 8.2853C49.0731 8.40365 49.1493 8.44262 49.2631 8.40365L49.7187 8.2853C49.7959 8.2853 49.8336 8.24511 49.8714 8.16553C49.9103 8.12656 49.9103 8.04759 49.9103 7.96802C49.9103 7.65236 49.8335 7.05921 49.758 6.26874C49.6808 5.43889 49.6053 4.60823 49.4918 3.7388C49.4153 2.86896 49.3774 2.19725 49.3774 1.68225C49.3774 1.48534 49.3385 1.3268 49.3012 1.20886C49.2631 1.09052 49.1872 1.01054 49.0731 1.01054C48.9968 1.01054 48.8824 1.05032 48.8451 1.09052C48.7687 1.1299 48.6545 1.16908 48.5785 1.24784L48.0849 1.72244C48.0077 1.84201 47.8939 1.88058 47.7796 1.88058C47.6656 1.92057 47.5139 1.84201 47.3617 1.76223C47.0196 1.56472 46.4871 1.36659 45.6888 1.16908C44.8901 0.931572 43.978 0.813022 42.8751 0.773438C41.8483 0.773438 40.8596 0.931571 39.9463 1.20886C39.0338 1.52513 38.2359 1.99913 37.5511 2.67064C36.9426 3.2642 36.4103 4.01528 35.9158 4.88532C35.4602 5.79454 35.231 6.74294 35.1935 7.73092C35.1935 9.03618 35.3458 10.1427 35.6875 11.0905C35.9916 12.0405 36.4483 12.8702 37.0945 13.5021C37.9693 14.3725 38.9584 15.0838 40.0229 15.598C41.1262 16.1118 41.9997 16.5072 42.6464 16.7044C44.2053 17.2183 45.5744 17.9696 46.7156 18.919C47.8562 19.9064 48.4651 21.4086 48.5031 23.3843C48.4651 24.5715 48.1979 25.5192 47.6656 26.2707C47.1342 27.0212 46.4871 27.5364 45.6888 27.8921C44.8901 28.2473 44.1293 28.4056 43.3314 28.4056C42.2664 28.4056 41.2391 28.1283 40.3267 27.6539C39.3761 27.1408 38.5778 26.4295 38.0072 25.4809C37.3991 24.4921 37.0185 23.6214 36.867 22.9105C36.7143 22.1986 36.6381 21.5271 36.6381 20.8946C36.6381 20.7758 36.5999 20.6979 36.562 20.6581C36.562 20.6183 36.4864 20.5781 36.4103 20.5781L35.8402 20.5389C35.7637 20.5389 35.7256 20.5389 35.6491 20.5781C35.6114 20.5781 35.6114 20.6581 35.5737 20.7758C35.5352 21.2113 35.4602 21.9226 35.3835 22.9105C35.3071 23.9389 35.231 24.9275 35.1548 25.8751C35.041 26.8637 34.9648 27.5364 34.9266 27.9323C34.8885 28.1687 34.9266 28.3255 35.0031 28.4056C35.041 28.5238 35.1548 28.5638 35.2691 28.5638C35.3835 28.5638 35.5352 28.5638 35.6114 28.4838C35.7256 28.445 35.8403 28.2873 35.9531 28.0896C36.0676 27.8919 36.1824 27.7331 36.2581 27.6142C36.3339 27.4968 36.4483 27.4168 36.562 27.4168C36.6381 27.4168 36.7526 27.456 36.9045 27.5362C37.0185 27.575 37.2091 27.7331 37.4366 27.8919C38.1978 28.5236 39.0338 28.9984 40.0229 29.3936C41.0121 29.7501 42.1524 29.9472 43.4828 29.9472ZM66.83 18.8391C67.1341 18.8391 67.4 18.8001 67.5906 18.7205C67.7808 18.6424 67.8947 18.4836 67.8947 18.2063C67.8947 17.6532 67.7421 16.9027 67.4002 16.0326C67.0958 15.1228 66.5262 14.2926 65.6886 13.5427C64.8909 12.8306 63.7495 12.4351 62.3047 12.396C61.3549 12.396 60.4037 12.5143 59.4906 12.7912C58.5784 13.0677 57.703 13.6604 56.8674 14.4915C55.8787 15.5584 55.232 16.7044 54.9277 17.8511C54.5848 18.9978 54.4337 19.9862 54.4712 20.7758C54.4712 22.1211 54.5848 23.2658 54.8137 24.176C55.042 25.1238 55.4983 26.0738 56.1439 27.0214C56.8674 28.09 57.7795 28.8009 58.8442 29.2363C59.909 29.6311 61.0125 29.829 62.1153 29.829C63.2551 29.7887 64.2067 29.5518 65.0423 29.0778C65.8419 28.5642 66.5262 28.0104 67.0579 27.3391C67.5523 26.6666 67.9329 26.074 68.1612 25.5194C68.2368 25.3225 68.2747 25.1634 68.2747 25.0852C68.2747 25.0065 68.2368 24.9277 68.1612 24.9277L67.6672 24.6508C67.5904 24.6508 67.5523 24.6508 67.4762 24.6908C67.3998 24.729 67.3627 24.7688 67.3246 24.8475C66.9823 25.5194 66.4488 26.1524 65.6515 26.6666C64.8522 27.221 63.9024 27.4972 62.7226 27.5366C61.1633 27.4972 59.8707 26.8641 58.8821 25.5992C57.8938 24.3348 57.3605 22.713 57.324 20.7369C57.324 19.827 57.3607 19.1959 57.4368 18.8393H66.83V18.8391ZM57.5891 17.6532C57.9693 16.19 58.5021 15.1636 59.2248 14.5305C59.9473 13.8979 60.746 13.5815 61.5818 13.5815C62.381 13.6208 63.0272 13.859 63.4453 14.2926C63.8642 14.7278 64.1678 15.2424 64.3199 15.7947C64.4342 16.3489 64.5103 16.7843 64.5103 17.1C64.5103 17.2977 64.4342 17.4158 64.2809 17.4956C64.092 17.6142 63.8259 17.6532 63.4839 17.6532H57.5891ZM84.8915 15.4391C84.8159 15.1228 84.8534 14.8871 84.9678 14.6882C85.0811 14.5305 85.2342 14.4121 85.4234 14.4121H86.2229C86.4119 14.4121 86.4885 14.2926 86.4885 14.0959V13.2646C86.4885 13.1862 86.4506 13.1071 86.4117 13.0677C86.375 13.0287 86.2604 12.9883 86.1456 12.9883C85.9948 12.9883 85.6908 13.0287 85.2342 13.0287C84.7775 13.0677 84.1315 13.1071 83.2568 13.1071C82.3047 13.1071 81.5451 13.0677 80.9364 13.0287C80.3662 13.0287 79.9856 12.9883 79.8331 12.9883C79.7194 12.9883 79.644 13.0287 79.5673 13.0677C79.5298 13.1071 79.4915 13.1862 79.4915 13.3052V14.1348C79.4915 14.3321 79.5673 14.4121 79.7589 14.4121H80.3283C80.5944 14.4121 80.8229 14.4511 80.9752 14.4915C81.1268 14.5696 81.2787 14.6496 81.3545 14.8067C81.4695 14.9655 81.5452 15.1228 81.5825 15.3205C81.6206 15.5187 81.6593 15.7555 81.6976 16.0718L77.8188 25.7178H77.6669L74.662 15.2424C74.5485 14.8871 74.5485 14.6098 74.662 14.4511C74.7387 14.2536 74.8908 14.1752 75.1191 14.1752H75.461C75.5753 14.1752 75.6885 14.1348 75.727 14.0959C75.7651 14.0163 75.7651 13.9377 75.7651 13.859V13.0675C75.7651 12.9487 75.727 12.87 75.6883 12.8304C75.6504 12.791 75.5751 12.7522 75.4608 12.7522C75.1953 12.7522 74.7768 12.791 74.2817 12.791C73.7875 12.8304 73.1038 12.87 72.2661 12.87C71.2011 12.87 70.4405 12.8304 69.9087 12.791C69.4139 12.791 69.0335 12.7522 68.806 12.7522C68.7298 12.7522 68.6543 12.791 68.6164 12.8304C68.5783 12.9095 68.5783 12.9881 68.5783 13.0675V13.819C68.5783 13.9375 68.5783 14.0161 68.6164 14.0957C68.6541 14.1346 68.7299 14.175 68.8443 14.175H69.681C70.1366 14.175 70.4793 14.2534 70.7072 14.4119C70.9732 14.6096 71.164 14.8459 71.278 15.2422L76.2595 29.1557C76.3349 29.3938 76.412 29.5909 76.5261 29.7101C76.6399 29.8672 76.7534 29.947 76.9061 29.947C77.0574 29.947 77.2101 29.9076 77.3626 29.7882C77.4761 29.7101 77.5907 29.5513 77.7055 29.3145L82.382 17.929H82.572L86.2985 29.1955C86.3754 29.433 86.4887 29.6309 86.6029 29.7499C86.7177 29.8672 86.831 29.947 86.9831 29.947C87.1346 29.947 87.2871 29.9076 87.402 29.8672C87.5152 29.788 87.6299 29.6307 87.7054 29.4328C87.8585 29.0384 88.1997 28.1683 88.7712 26.7058C89.303 25.2817 89.9109 23.7004 90.5957 21.9615C91.2796 20.1833 91.9273 18.6419 92.4594 17.2571C92.9921 15.9139 93.3341 15.0834 93.4858 14.8457C93.6004 14.6492 93.7902 14.4911 94.0189 14.3721C94.2468 14.2532 94.4747 14.1748 94.7037 14.1748H95.6538C95.8434 14.1748 95.9195 14.0551 95.9195 13.8586V13.0283C95.9195 12.9485 95.8814 12.8698 95.8432 12.8302C95.8051 12.7908 95.7305 12.752 95.6536 12.752C95.4249 12.752 95.1203 12.7908 94.7035 12.7908C94.2843 12.8302 93.6768 12.8698 92.8769 12.8698C92.0783 12.8698 91.4323 12.8302 90.9009 12.7908C90.4055 12.7908 90.0644 12.752 89.9495 12.752C89.8738 12.752 89.798 12.7908 89.759 12.8302C89.7215 12.8698 89.6838 12.9485 89.6838 13.0283V13.8586C89.6838 13.9373 89.6838 14.0159 89.7213 14.0954C89.7588 14.1344 89.8359 14.1748 89.9107 14.1748H90.4436C90.8244 14.1748 91.09 14.3721 91.204 14.7274C91.318 15.1224 91.2427 15.6378 91.014 16.3485L87.9335 25.0448H87.7826L84.8915 15.4391ZM107.82 22.3172V16.2695C107.82 15.7166 107.782 15.2424 107.706 14.7682C107.591 14.2926 107.363 13.859 106.983 13.4633C106.717 13.1862 106.374 12.9489 105.918 12.7524C105.5 12.5143 104.815 12.396 103.941 12.396C103.105 12.396 102.306 12.5143 101.583 12.7114C100.861 12.9489 100.101 13.3052 99.3009 13.7796C98.503 14.2536 97.8945 14.8461 97.4009 15.5187C96.9441 16.19 96.6782 16.8621 96.6782 17.4956C96.6782 17.9292 96.7549 18.2847 96.9059 18.4836C97.0584 18.6803 97.2861 18.7601 97.5909 18.7601C98.3511 18.7601 98.8832 18.562 99.1883 18.1673C99.4921 17.7727 99.6056 17.2183 99.6056 16.5072C99.5677 16.1512 99.5306 15.8347 99.4921 15.5187C99.455 15.2024 99.5677 14.9263 99.7967 14.6882C100.101 14.4121 100.481 14.2148 100.938 14.0959C101.431 13.9377 101.849 13.859 102.269 13.859C102.839 13.859 103.295 13.9377 103.676 14.0959C104.055 14.2536 104.361 14.4511 104.549 14.7278C104.74 15.0045 104.892 15.3611 104.93 15.7555C105.006 16.19 105.045 16.5854 105.082 16.9412V19.472C104.74 19.7491 104.169 20.1043 103.333 20.5389C102.534 20.9348 101.659 21.3694 100.785 21.7654C99.3011 22.4368 98.313 23.1878 97.7432 23.9787C97.2103 24.8086 96.9443 25.6392 96.982 26.5474C97.0203 27.7735 97.2865 28.6431 97.7821 29.1169C98.2755 29.5909 98.7702 29.8288 99.264 29.8288C99.6821 29.8288 100.062 29.8288 100.443 29.7885C100.785 29.7885 101.165 29.7103 101.509 29.5909C102.344 29.2753 103.105 28.9596 103.751 28.5238C104.361 28.1284 104.892 27.6937 105.272 27.1802H105.349C105.538 28.0102 105.842 28.6431 106.299 29.1169C106.794 29.5909 107.364 29.8288 108.048 29.8288C108.998 29.7885 109.683 29.5516 110.141 29.0776C110.596 28.6431 110.863 28.2473 111.015 27.8921C111.128 27.6937 111.167 27.5364 111.167 27.4171C111.167 27.3387 111.128 27.2208 111.052 27.1802L110.673 26.8637C110.596 26.8249 110.52 26.7849 110.482 26.8249C110.444 26.8637 110.368 26.9433 110.292 27.0212C110.178 27.1802 110.026 27.2981 109.798 27.4171C109.532 27.5364 109.266 27.6144 108.96 27.6144C108.619 27.6539 108.353 27.4171 108.125 26.9822C107.934 26.5474 107.821 25.7574 107.821 24.6506V22.3172H107.82ZM105.044 25.519C104.968 26.0734 104.587 26.6266 103.903 27.1406C103.181 27.6537 102.534 27.9321 101.926 27.9698C101.354 27.9698 100.861 27.8125 100.519 27.4168C100.138 27.0612 99.9481 26.5472 99.9481 25.7961C99.9854 24.7286 100.327 23.8598 100.974 23.2278C101.622 22.6335 102.306 22.1211 103.105 21.7255C103.903 21.3694 104.549 21.0127 105.044 20.6581V25.519Z" fill="#28293D"/>
<path d="M0 15.4668C0 6.92458 6.94056 0 15.5026 0C23.5608 0 30.1834 6.13525 30.9333 13.9784H25.0371V16.9546H30.9333C30.1834 24.7993 23.5608 30.9333 15.5026 30.9333C6.94056 30.9333 0 24.0092 0 15.4668Z" fill="#60BB47"/>
<path d="M19.8887 12.5915C20.2167 12.5404 20.4973 12.4534 20.6891 12.3397C20.8815 12.2256 20.9785 12.0415 20.9332 11.7559C20.8423 11.1836 20.5547 10.433 20.0431 9.59094C19.5656 8.70208 18.8142 7.94029 17.7895 7.30635C16.812 6.70584 15.5176 6.49046 13.9534 6.69581C12.9288 6.85867 11.924 7.1425 10.9851 7.58408C10.0469 8.02644 9.20175 8.78863 8.43643 9.79019C7.54532 11.0622 7.03727 12.3576 6.89769 13.5968C6.71671 14.8397 6.71494 15.8885 6.88587 16.6998C7.10687 18.0907 7.41816 19.2565 7.81265 20.1583C8.21444 21.1014 8.86286 22.0047 9.71493 22.8766C10.6691 23.8559 11.77 24.4374 12.988 24.7062C14.2016 24.9332 15.4219 24.9505 16.6109 24.7631C17.8338 24.527 18.8198 24.1205 19.644 23.4869C20.4202 22.8199 21.0672 22.1299 21.5303 21.3453C21.9528 20.5654 22.2657 19.8878 22.4211 19.2759C22.4701 19.0584 22.4853 18.8884 22.4715 18.8066C22.4587 18.724 22.4051 18.6499 22.3237 18.6618L21.7448 18.4608C21.6624 18.473 21.6222 18.4799 21.5459 18.5336C21.4712 18.5877 21.4365 18.6345 21.4087 18.7232C21.1502 19.4771 20.68 20.2224 19.9035 20.8894C19.1338 21.5975 18.1544 22.0456 16.8905 22.2871C15.2035 22.5121 13.7058 22.0772 12.4322 20.9378C11.1592 19.7974 10.3188 18.2112 9.95347 16.1735C9.80364 15.2329 9.74174 14.5716 9.76559 14.1912L19.8887 12.5915ZM9.73405 12.9381C9.9036 11.3604 10.3085 10.2072 10.9842 9.42887C11.6598 8.65272 12.4685 8.18812 13.3696 8.04631C14.2367 7.95111 14.972 8.08604 15.4943 8.46507C16.0169 8.84331 16.4294 9.32364 16.6837 9.87044C16.898 10.423 17.0514 10.8602 17.1034 11.1877C17.1355 11.3919 17.0725 11.5276 16.9216 11.6352C16.7363 11.79 16.4562 11.8763 16.0873 11.9347L9.73405 12.9381Z" fill="white"/>
<path d="M111.959 12.4084H111.162V12.1094H113.102V12.4084H112.301V14.8329H111.959V12.4084Z" fill="#3C444C"/>
<path d="M115.604 13.6363C115.584 13.2614 115.561 12.7963 115.561 12.4606H115.553C115.46 12.7754 115.355 13.1235 115.223 13.495L114.76 14.8165H114.503L114.076 13.52C113.951 13.1361 113.85 12.7841 113.776 12.4606H113.768C113.761 12.8006 113.741 13.2565 113.718 13.6657L113.648 14.8329H113.325L113.508 12.1094H113.94L114.388 13.4266C114.496 13.7623 114.582 14.0656 114.652 14.3484H114.658C114.728 14.0731 114.823 13.77 114.939 13.4266L115.405 12.1094H115.838L116 14.8329H115.666L115.604 13.6363Z" fill="#3C444C"/>
</svg>
